<?xml version="1.0" encoding="utf-8" standalone="no"?>
<!DOCTYPE svg PUBLIC "-//W3C//DTD SVG 1.1//EN"
  "http://www.w3.org/Graphics/SVG/1.1/DTD/svg11.dtd">
<svg xmlns:xlink="http://www.w3.org/1999/xlink" width="567.905589pt" height="381.586437pt" viewBox="0 0 567.905589 381.586437" xmlns="http://www.w3.org/2000/svg" version="1.1">
 <metadata>
  <rdf:RDF xmlns:dc="http://purl.org/dc/elements/1.1/" xmlns:cc="http://creativecommons.org/ns#" xmlns:rdf="http://www.w3.org/1999/02/22-rdf-syntax-ns#">
   <cc:Work>
    <dc:type rdf:resource="http://purl.org/dc/dcmitype/StillImage"/>
    <dc:date>2026-05-27T13:38:59.068526</dc:date>
    <dc:format>image/svg+xml</dc:format>
    <dc:creator>
     <cc:Agent>
      <dc:title>Matplotlib v3.10.9, https://matplotlib.org/</dc:title>
     </cc:Agent>
    </dc:creator>
   </cc:Work>
  </rdf:RDF>
 </metadata>
 <defs>
  <style type="text/css">*{stroke-linejoin: round; stroke-linecap: butt}</style>
 </defs>
 <g id="figure_1">
  <g id="patch_1">
   <path d="M 0 381.586437 
L 567.905589 381.586437 
L 567.905589 0 
L 0 0 
z
" style="fill: #ffffff"/>
  </g>
  <g id="axes_1">
   <g id="patch_2">
    <path d="M 44.685938 344.006125 
L 560.705589 344.006125 
L 560.705589 22.318125 
L 44.685938 22.318125 
z
" style="fill: #ffffff"/>
   </g>
   <g id="matplotlib.axis_1">
    <g id="xtick_1">
     <g id="line2d_1">
      <path d="M 44.685938 344.006125 
L 44.685938 22.318125 
" clip-path="url(#p52e6703ed9)" style="fill: none; stroke: #b0b0b0; stroke-opacity: 0.3; stroke-width: 0.8; stroke-linecap: square"/>
     </g>
     <g id="line2d_2">
      <defs>
       <path id="m06a9f1f3c1" d="M 0 0 
L 0 3.5 
" style="stroke: #000000; stroke-width: 0.8"/>
      </defs>
      <g>
       <use xlink:href="#m06a9f1f3c1" x="44.685938" y="344.006125" style="stroke: #000000; stroke-width: 0.8"/>
      </g>
     </g>
     <g id="text_1">
      <!-- $\mathdefault{10^{0}}$ -->
      <g transform="translate(36.765938 357.844719) scale(0.09 -0.09)">
       <defs>
        <path id="DejaVuSans-31" d="M 794 531 
L 1825 531 
L 1825 4091 
L 703 3866 
L 703 4441 
L 1819 4666 
L 2450 4666 
L 2450 531 
L 3481 531 
L 3481 0 
L 794 0 
L 794 531 
z
" transform="scale(0.015625)"/>
        <path id="DejaVuSans-30" d="M 2034 4250 
Q 1547 4250 1301 3770 
Q 1056 3291 1056 2328 
Q 1056 1369 1301 889 
Q 1547 409 2034 409 
Q 2525 409 2770 889 
Q 3016 1369 3016 2328 
Q 3016 3291 2770 3770 
Q 2525 4250 2034 4250 
z
M 2034 4750 
Q 2819 4750 3233 4129 
Q 3647 3509 3647 2328 
Q 3647 1150 3233 529 
Q 2819 -91 2034 -91 
Q 1250 -91 836 529 
Q 422 1150 422 2328 
Q 422 3509 836 4129 
Q 1250 4750 2034 4750 
z
" transform="scale(0.015625)"/>
       </defs>
       <use xlink:href="#DejaVuSans-31" transform="translate(0 0.765625)"/>
       <use xlink:href="#DejaVuSans-30" transform="translate(63.623047 0.765625)"/>
       <use xlink:href="#DejaVuSans-30" transform="translate(128.203125 39.046875) scale(0.7)"/>
      </g>
     </g>
    </g>
    <g id="xtick_2">
     <g id="line2d_3">
      <path d="M 212.269334 344.006125 
L 212.269334 22.318125 
" clip-path="url(#p52e6703ed9)" style="fill: none; stroke: #b0b0b0; stroke-opacity: 0.3; stroke-width: 0.8; stroke-linecap: square"/>
     </g>
     <g id="line2d_4">
      <g>
       <use xlink:href="#m06a9f1f3c1" x="212.269334" y="344.006125" style="stroke: #000000; stroke-width: 0.8"/>
      </g>
     </g>
     <g id="text_2">
      <!-- $\mathdefault{10^{1}}$ -->
      <g transform="translate(204.349334 357.844719) scale(0.09 -0.09)">
       <use xlink:href="#DejaVuSans-31" transform="translate(0 0.684375)"/>
       <use xlink:href="#DejaVuSans-30" transform="translate(63.623047 0.684375)"/>
       <use xlink:href="#DejaVuSans-31" transform="translate(128.203125 38.965625) scale(0.7)"/>
      </g>
     </g>
    </g>
    <g id="xtick_3">
     <g id="line2d_5">
      <path d="M 379.85273 344.006125 
L 379.85273 22.318125 
" clip-path="url(#p52e6703ed9)" style="fill: none; stroke: #b0b0b0; stroke-opacity: 0.3; stroke-width: 0.8; stroke-linecap: square"/>
     </g>
     <g id="line2d_6">
      <g>
       <use xlink:href="#m06a9f1f3c1" x="379.85273" y="344.006125" style="stroke: #000000; stroke-width: 0.8"/>
      </g>
     </g>
     <g id="text_3">
      <!-- $\mathdefault{10^{2}}$ -->
      <g transform="translate(371.93273 357.844719) scale(0.09 -0.09)">
       <defs>
        <path id="DejaVuSans-32" d="M 1228 531 
L 3431 531 
L 3431 0 
L 469 0 
L 469 531 
Q 828 903 1448 1529 
Q 2069 2156 2228 2338 
Q 2531 2678 2651 2914 
Q 2772 3150 2772 3378 
Q 2772 3750 2511 3984 
Q 2250 4219 1831 4219 
Q 1534 4219 1204 4116 
Q 875 4013 500 3803 
L 500 4441 
Q 881 4594 1212 4672 
Q 1544 4750 1819 4750 
Q 2544 4750 2975 4387 
Q 3406 4025 3406 3419 
Q 3406 3131 3298 2873 
Q 3191 2616 2906 2266 
Q 2828 2175 2409 1742 
Q 1991 1309 1228 531 
z
" transform="scale(0.015625)"/>
       </defs>
       <use xlink:href="#DejaVuSans-31" transform="translate(0 0.765625)"/>
       <use xlink:href="#DejaVuSans-30" transform="translate(63.623047 0.765625)"/>
       <use xlink:href="#DejaVuSans-32" transform="translate(128.203125 39.046875) scale(0.7)"/>
      </g>
     </g>
    </g>
    <g id="xtick_4">
     <g id="line2d_7">
      <path d="M 547.436127 344.006125 
L 547.436127 22.318125 
" clip-path="url(#p52e6703ed9)" style="fill: none; stroke: #b0b0b0; stroke-opacity: 0.3; stroke-width: 0.8; stroke-linecap: square"/>
     </g>
     <g id="line2d_8">
      <g>
       <use xlink:href="#m06a9f1f3c1" x="547.436127" y="344.006125" style="stroke: #000000; stroke-width: 0.8"/>
      </g>
     </g>
     <g id="text_4">
      <!-- $\mathdefault{10^{3}}$ -->
      <g transform="translate(539.516127 357.844719) scale(0.09 -0.09)">
       <defs>
        <path id="DejaVuSans-33" d="M 2597 2516 
Q 3050 2419 3304 2112 
Q 3559 1806 3559 1356 
Q 3559 666 3084 287 
Q 2609 -91 1734 -91 
Q 1441 -91 1130 -33 
Q 819 25 488 141 
L 488 750 
Q 750 597 1062 519 
Q 1375 441 1716 441 
Q 2309 441 2620 675 
Q 2931 909 2931 1356 
Q 2931 1769 2642 2001 
Q 2353 2234 1838 2234 
L 1294 2234 
L 1294 2753 
L 1863 2753 
Q 2328 2753 2575 2939 
Q 2822 3125 2822 3475 
Q 2822 3834 2567 4026 
Q 2313 4219 1838 4219 
Q 1578 4219 1281 4162 
Q 984 4106 628 3988 
L 628 4550 
Q 988 4650 1302 4700 
Q 1616 4750 1894 4750 
Q 2613 4750 3031 4423 
Q 3450 4097 3450 3541 
Q 3450 3153 3228 2886 
Q 3006 2619 2597 2516 
z
" transform="scale(0.015625)"/>
       </defs>
       <use xlink:href="#DejaVuSans-31" transform="translate(0 0.765625)"/>
       <use xlink:href="#DejaVuSans-30" transform="translate(63.623047 0.765625)"/>
       <use xlink:href="#DejaVuSans-33" transform="translate(128.203125 39.046875) scale(0.7)"/>
      </g>
     </g>
    </g>
    <g id="xtick_5">
     <g id="line2d_9">
      <path d="M 95.133567 344.006125 
L 95.133567 22.318125 
" clip-path="url(#p52e6703ed9)" style="fill: none; stroke: #b0b0b0; stroke-opacity: 0.3; stroke-width: 0.8; stroke-linecap: square"/>
     </g>
     <g id="line2d_10">
      <defs>
       <path id="ma9e2a2884f" d="M 0 0 
L 0 2 
" style="stroke: #000000; stroke-width: 0.6"/>
      </defs>
      <g>
       <use xlink:href="#ma9e2a2884f" x="95.133567" y="344.006125" style="stroke: #000000; stroke-width: 0.6"/>
      </g>
     </g>
    </g>
    <g id="xtick_6">
     <g id="line2d_11">
      <path d="M 124.643538 344.006125 
L 124.643538 22.318125 
" clip-path="url(#p52e6703ed9)" style="fill: none; stroke: #b0b0b0; stroke-opacity: 0.3; stroke-width: 0.8; stroke-linecap: square"/>
     </g>
     <g id="line2d_12">
      <g>
       <use xlink:href="#ma9e2a2884f" x="124.643538" y="344.006125" style="stroke: #000000; stroke-width: 0.6"/>
      </g>
     </g>
    </g>
    <g id="xtick_7">
     <g id="line2d_13">
      <path d="M 145.581196 344.006125 
L 145.581196 22.318125 
" clip-path="url(#p52e6703ed9)" style="fill: none; stroke: #b0b0b0; stroke-opacity: 0.3; stroke-width: 0.8; stroke-linecap: square"/>
     </g>
     <g id="line2d_14">
      <g>
       <use xlink:href="#ma9e2a2884f" x="145.581196" y="344.006125" style="stroke: #000000; stroke-width: 0.6"/>
      </g>
     </g>
    </g>
    <g id="xtick_8">
     <g id="line2d_15">
      <path d="M 161.821705 344.006125 
L 161.821705 22.318125 
" clip-path="url(#p52e6703ed9)" style="fill: none; stroke: #b0b0b0; stroke-opacity: 0.3; stroke-width: 0.8; stroke-linecap: square"/>
     </g>
     <g id="line2d_16">
      <g>
       <use xlink:href="#ma9e2a2884f" x="161.821705" y="344.006125" style="stroke: #000000; stroke-width: 0.6"/>
      </g>
     </g>
    </g>
    <g id="xtick_9">
     <g id="line2d_17">
      <path d="M 175.091167 344.006125 
L 175.091167 22.318125 
" clip-path="url(#p52e6703ed9)" style="fill: none; stroke: #b0b0b0; stroke-opacity: 0.3; stroke-width: 0.8; stroke-linecap: square"/>
     </g>
     <g id="line2d_18">
      <g>
       <use xlink:href="#ma9e2a2884f" x="175.091167" y="344.006125" style="stroke: #000000; stroke-width: 0.6"/>
      </g>
     </g>
    </g>
    <g id="xtick_10">
     <g id="line2d_19">
      <path d="M 186.310337 344.006125 
L 186.310337 22.318125 
" clip-path="url(#p52e6703ed9)" style="fill: none; stroke: #b0b0b0; stroke-opacity: 0.3; stroke-width: 0.8; stroke-linecap: square"/>
     </g>
     <g id="line2d_20">
      <g>
       <use xlink:href="#ma9e2a2884f" x="186.310337" y="344.006125" style="stroke: #000000; stroke-width: 0.6"/>
      </g>
     </g>
    </g>
    <g id="xtick_11">
     <g id="line2d_21">
      <path d="M 196.028825 344.006125 
L 196.028825 22.318125 
" clip-path="url(#p52e6703ed9)" style="fill: none; stroke: #b0b0b0; stroke-opacity: 0.3; stroke-width: 0.8; stroke-linecap: square"/>
     </g>
     <g id="line2d_22">
      <g>
       <use xlink:href="#ma9e2a2884f" x="196.028825" y="344.006125" style="stroke: #000000; stroke-width: 0.6"/>
      </g>
     </g>
    </g>
    <g id="xtick_12">
     <g id="line2d_23">
      <path d="M 204.601138 344.006125 
L 204.601138 22.318125 
" clip-path="url(#p52e6703ed9)" style="fill: none; stroke: #b0b0b0; stroke-opacity: 0.3; stroke-width: 0.8; stroke-linecap: square"/>
     </g>
     <g id="line2d_24">
      <g>
       <use xlink:href="#ma9e2a2884f" x="204.601138" y="344.006125" style="stroke: #000000; stroke-width: 0.6"/>
      </g>
     </g>
    </g>
    <g id="xtick_13">
     <g id="line2d_25">
      <path d="M 262.716963 344.006125 
L 262.716963 22.318125 
" clip-path="url(#p52e6703ed9)" style="fill: none; stroke: #b0b0b0; stroke-opacity: 0.3; stroke-width: 0.8; stroke-linecap: square"/>
     </g>
     <g id="line2d_26">
      <g>
       <use xlink:href="#ma9e2a2884f" x="262.716963" y="344.006125" style="stroke: #000000; stroke-width: 0.6"/>
      </g>
     </g>
    </g>
    <g id="xtick_14">
     <g id="line2d_27">
      <path d="M 292.226934 344.006125 
L 292.226934 22.318125 
" clip-path="url(#p52e6703ed9)" style="fill: none; stroke: #b0b0b0; stroke-opacity: 0.3; stroke-width: 0.8; stroke-linecap: square"/>
     </g>
     <g id="line2d_28">
      <g>
       <use xlink:href="#ma9e2a2884f" x="292.226934" y="344.006125" style="stroke: #000000; stroke-width: 0.6"/>
      </g>
     </g>
    </g>
    <g id="xtick_15">
     <g id="line2d_29">
      <path d="M 313.164592 344.006125 
L 313.164592 22.318125 
" clip-path="url(#p52e6703ed9)" style="fill: none; stroke: #b0b0b0; stroke-opacity: 0.3; stroke-width: 0.8; stroke-linecap: square"/>
     </g>
     <g id="line2d_30">
      <g>
       <use xlink:href="#ma9e2a2884f" x="313.164592" y="344.006125" style="stroke: #000000; stroke-width: 0.6"/>
      </g>
     </g>
    </g>
    <g id="xtick_16">
     <g id="line2d_31">
      <path d="M 329.405101 344.006125 
L 329.405101 22.318125 
" clip-path="url(#p52e6703ed9)" style="fill: none; stroke: #b0b0b0; stroke-opacity: 0.3; stroke-width: 0.8; stroke-linecap: square"/>
     </g>
     <g id="line2d_32">
      <g>
       <use xlink:href="#ma9e2a2884f" x="329.405101" y="344.006125" style="stroke: #000000; stroke-width: 0.6"/>
      </g>
     </g>
    </g>
    <g id="xtick_17">
     <g id="line2d_33">
      <path d="M 342.674563 344.006125 
L 342.674563 22.318125 
" clip-path="url(#p52e6703ed9)" style="fill: none; stroke: #b0b0b0; stroke-opacity: 0.3; stroke-width: 0.8; stroke-linecap: square"/>
     </g>
     <g id="line2d_34">
      <g>
       <use xlink:href="#ma9e2a2884f" x="342.674563" y="344.006125" style="stroke: #000000; stroke-width: 0.6"/>
      </g>
     </g>
    </g>
    <g id="xtick_18">
     <g id="line2d_35">
      <path d="M 353.893734 344.006125 
L 353.893734 22.318125 
" clip-path="url(#p52e6703ed9)" style="fill: none; stroke: #b0b0b0; stroke-opacity: 0.3; stroke-width: 0.8; stroke-linecap: square"/>
     </g>
     <g id="line2d_36">
      <g>
       <use xlink:href="#ma9e2a2884f" x="353.893734" y="344.006125" style="stroke: #000000; stroke-width: 0.6"/>
      </g>
     </g>
    </g>
    <g id="xtick_19">
     <g id="line2d_37">
      <path d="M 363.612221 344.006125 
L 363.612221 22.318125 
" clip-path="url(#p52e6703ed9)" style="fill: none; stroke: #b0b0b0; stroke-opacity: 0.3; stroke-width: 0.8; stroke-linecap: square"/>
     </g>
     <g id="line2d_38">
      <g>
       <use xlink:href="#ma9e2a2884f" x="363.612221" y="344.006125" style="stroke: #000000; stroke-width: 0.6"/>
      </g>
     </g>
    </g>
    <g id="xtick_20">
     <g id="line2d_39">
      <path d="M 372.184535 344.006125 
L 372.184535 22.318125 
" clip-path="url(#p52e6703ed9)" style="fill: none; stroke: #b0b0b0; stroke-opacity: 0.3; stroke-width: 0.8; stroke-linecap: square"/>
     </g>
     <g id="line2d_40">
      <g>
       <use xlink:href="#ma9e2a2884f" x="372.184535" y="344.006125" style="stroke: #000000; stroke-width: 0.6"/>
      </g>
     </g>
    </g>
    <g id="xtick_21">
     <g id="line2d_41">
      <path d="M 430.30036 344.006125 
L 430.30036 22.318125 
" clip-path="url(#p52e6703ed9)" style="fill: none; stroke: #b0b0b0; stroke-opacity: 0.3; stroke-width: 0.8; stroke-linecap: square"/>
     </g>
     <g id="line2d_42">
      <g>
       <use xlink:href="#ma9e2a2884f" x="430.30036" y="344.006125" style="stroke: #000000; stroke-width: 0.6"/>
      </g>
     </g>
    </g>
    <g id="xtick_22">
     <g id="line2d_43">
      <path d="M 459.810331 344.006125 
L 459.810331 22.318125 
" clip-path="url(#p52e6703ed9)" style="fill: none; stroke: #b0b0b0; stroke-opacity: 0.3; stroke-width: 0.8; stroke-linecap: square"/>
     </g>
     <g id="line2d_44">
      <g>
       <use xlink:href="#ma9e2a2884f" x="459.810331" y="344.006125" style="stroke: #000000; stroke-width: 0.6"/>
      </g>
     </g>
    </g>
    <g id="xtick_23">
     <g id="line2d_45">
      <path d="M 480.747989 344.006125 
L 480.747989 22.318125 
" clip-path="url(#p52e6703ed9)" style="fill: none; stroke: #b0b0b0; stroke-opacity: 0.3; stroke-width: 0.8; stroke-linecap: square"/>
     </g>
     <g id="line2d_46">
      <g>
       <use xlink:href="#ma9e2a2884f" x="480.747989" y="344.006125" style="stroke: #000000; stroke-width: 0.6"/>
      </g>
     </g>
    </g>
    <g id="xtick_24">
     <g id="line2d_47">
      <path d="M 496.988498 344.006125 
L 496.988498 22.318125 
" clip-path="url(#p52e6703ed9)" style="fill: none; stroke: #b0b0b0; stroke-opacity: 0.3; stroke-width: 0.8; stroke-linecap: square"/>
     </g>
     <g id="line2d_48">
      <g>
       <use xlink:href="#ma9e2a2884f" x="496.988498" y="344.006125" style="stroke: #000000; stroke-width: 0.6"/>
      </g>
     </g>
    </g>
    <g id="xtick_25">
     <g id="line2d_49">
      <path d="M 510.25796 344.006125 
L 510.25796 22.318125 
" clip-path="url(#p52e6703ed9)" style="fill: none; stroke: #b0b0b0; stroke-opacity: 0.3; stroke-width: 0.8; stroke-linecap: square"/>
     </g>
     <g id="line2d_50">
      <g>
       <use xlink:href="#ma9e2a2884f" x="510.25796" y="344.006125" style="stroke: #000000; stroke-width: 0.6"/>
      </g>
     </g>
    </g>
    <g id="xtick_26">
     <g id="line2d_51">
      <path d="M 521.47713 344.006125 
L 521.47713 22.318125 
" clip-path="url(#p52e6703ed9)" style="fill: none; stroke: #b0b0b0; stroke-opacity: 0.3; stroke-width: 0.8; stroke-linecap: square"/>
     </g>
     <g id="line2d_52">
      <g>
       <use xlink:href="#ma9e2a2884f" x="521.47713" y="344.006125" style="stroke: #000000; stroke-width: 0.6"/>
      </g>
     </g>
    </g>
    <g id="xtick_27">
     <g id="line2d_53">
      <path d="M 531.195618 344.006125 
L 531.195618 22.318125 
" clip-path="url(#p52e6703ed9)" style="fill: none; stroke: #b0b0b0; stroke-opacity: 0.3; stroke-width: 0.8; stroke-linecap: square"/>
     </g>
     <g id="line2d_54">
      <g>
       <use xlink:href="#ma9e2a2884f" x="531.195618" y="344.006125" style="stroke: #000000; stroke-width: 0.6"/>
      </g>
     </g>
    </g>
    <g id="xtick_28">
     <g id="line2d_55">
      <path d="M 539.767931 344.006125 
L 539.767931 22.318125 
" clip-path="url(#p52e6703ed9)" style="fill: none; stroke: #b0b0b0; stroke-opacity: 0.3; stroke-width: 0.8; stroke-linecap: square"/>
     </g>
     <g id="line2d_56">
      <g>
       <use xlink:href="#ma9e2a2884f" x="539.767931" y="344.006125" style="stroke: #000000; stroke-width: 0.6"/>
      </g>
     </g>
    </g>
    <g id="text_5">
     <!-- Wall superheat  ΔT$_{sat}$ = T$_w$ − T$_{sat}$  [K] -->
     <g transform="translate(200.725763 372.076437) scale(0.11 -0.11)">
      <defs>
       <path id="DejaVuSans-57" d="M 213 4666 
L 850 4666 
L 1831 722 
L 2809 4666 
L 3519 4666 
L 4500 722 
L 5478 4666 
L 6119 4666 
L 4947 0 
L 4153 0 
L 3169 4050 
L 2175 0 
L 1381 0 
L 213 4666 
z
" transform="scale(0.015625)"/>
       <path id="DejaVuSans-61" d="M 2194 1759 
Q 1497 1759 1228 1600 
Q 959 1441 959 1056 
Q 959 750 1161 570 
Q 1363 391 1709 391 
Q 2188 391 2477 730 
Q 2766 1069 2766 1631 
L 2766 1759 
L 2194 1759 
z
M 3341 1997 
L 3341 0 
L 2766 0 
L 2766 531 
Q 2569 213 2275 61 
Q 1981 -91 1556 -91 
Q 1019 -91 701 211 
Q 384 513 384 1019 
Q 384 1609 779 1909 
Q 1175 2209 1959 2209 
L 2766 2209 
L 2766 2266 
Q 2766 2663 2505 2880 
Q 2244 3097 1772 3097 
Q 1472 3097 1187 3025 
Q 903 2953 641 2809 
L 641 3341 
Q 956 3463 1253 3523 
Q 1550 3584 1831 3584 
Q 2591 3584 2966 3190 
Q 3341 2797 3341 1997 
z
" transform="scale(0.015625)"/>
       <path id="DejaVuSans-6c" d="M 603 4863 
L 1178 4863 
L 1178 0 
L 603 0 
L 603 4863 
z
" transform="scale(0.015625)"/>
       <path id="DejaVuSans-20" transform="scale(0.015625)"/>
       <path id="DejaVuSans-73" d="M 2834 3397 
L 2834 2853 
Q 2591 2978 2328 3040 
Q 2066 3103 1784 3103 
Q 1356 3103 1142 2972 
Q 928 2841 928 2578 
Q 928 2378 1081 2264 
Q 1234 2150 1697 2047 
L 1894 2003 
Q 2506 1872 2764 1633 
Q 3022 1394 3022 966 
Q 3022 478 2636 193 
Q 2250 -91 1575 -91 
Q 1294 -91 989 -36 
Q 684 19 347 128 
L 347 722 
Q 666 556 975 473 
Q 1284 391 1588 391 
Q 1994 391 2212 530 
Q 2431 669 2431 922 
Q 2431 1156 2273 1281 
Q 2116 1406 1581 1522 
L 1381 1569 
Q 847 1681 609 1914 
Q 372 2147 372 2553 
Q 372 3047 722 3315 
Q 1072 3584 1716 3584 
Q 2034 3584 2315 3537 
Q 2597 3491 2834 3397 
z
" transform="scale(0.015625)"/>
       <path id="DejaVuSans-75" d="M 544 1381 
L 544 3500 
L 1119 3500 
L 1119 1403 
Q 1119 906 1312 657 
Q 1506 409 1894 409 
Q 2359 409 2629 706 
Q 2900 1003 2900 1516 
L 2900 3500 
L 3475 3500 
L 3475 0 
L 2900 0 
L 2900 538 
Q 2691 219 2414 64 
Q 2138 -91 1772 -91 
Q 1169 -91 856 284 
Q 544 659 544 1381 
z
M 1991 3584 
L 1991 3584 
z
" transform="scale(0.015625)"/>
       <path id="DejaVuSans-70" d="M 1159 525 
L 1159 -1331 
L 581 -1331 
L 581 3500 
L 1159 3500 
L 1159 2969 
Q 1341 3281 1617 3432 
Q 1894 3584 2278 3584 
Q 2916 3584 3314 3078 
Q 3713 2572 3713 1747 
Q 3713 922 3314 415 
Q 2916 -91 2278 -91 
Q 1894 -91 1617 61 
Q 1341 213 1159 525 
z
M 3116 1747 
Q 3116 2381 2855 2742 
Q 2594 3103 2138 3103 
Q 1681 3103 1420 2742 
Q 1159 2381 1159 1747 
Q 1159 1113 1420 752 
Q 1681 391 2138 391 
Q 2594 391 2855 752 
Q 3116 1113 3116 1747 
z
" transform="scale(0.015625)"/>
       <path id="DejaVuSans-65" d="M 3597 1894 
L 3597 1613 
L 953 1613 
Q 991 1019 1311 708 
Q 1631 397 2203 397 
Q 2534 397 2845 478 
Q 3156 559 3463 722 
L 3463 178 
Q 3153 47 2828 -22 
Q 2503 -91 2169 -91 
Q 1331 -91 842 396 
Q 353 884 353 1716 
Q 353 2575 817 3079 
Q 1281 3584 2069 3584 
Q 2775 3584 3186 3129 
Q 3597 2675 3597 1894 
z
M 3022 2063 
Q 3016 2534 2758 2815 
Q 2500 3097 2075 3097 
Q 1594 3097 1305 2825 
Q 1016 2553 972 2059 
L 3022 2063 
z
" transform="scale(0.015625)"/>
       <path id="DejaVuSans-72" d="M 2631 2963 
Q 2534 3019 2420 3045 
Q 2306 3072 2169 3072 
Q 1681 3072 1420 2755 
Q 1159 2438 1159 1844 
L 1159 0 
L 581 0 
L 581 3500 
L 1159 3500 
L 1159 2956 
Q 1341 3275 1631 3429 
Q 1922 3584 2338 3584 
Q 2397 3584 2469 3576 
Q 2541 3569 2628 3553 
L 2631 2963 
z
" transform="scale(0.015625)"/>
       <path id="DejaVuSans-68" d="M 3513 2113 
L 3513 0 
L 2938 0 
L 2938 2094 
Q 2938 2591 2744 2837 
Q 2550 3084 2163 3084 
Q 1697 3084 1428 2787 
Q 1159 2491 1159 1978 
L 1159 0 
L 581 0 
L 581 4863 
L 1159 4863 
L 1159 2956 
Q 1366 3272 1645 3428 
Q 1925 3584 2291 3584 
Q 2894 3584 3203 3211 
Q 3513 2838 3513 2113 
z
" transform="scale(0.015625)"/>
       <path id="DejaVuSans-74" d="M 1172 4494 
L 1172 3500 
L 2356 3500 
L 2356 3053 
L 1172 3053 
L 1172 1153 
Q 1172 725 1289 603 
Q 1406 481 1766 481 
L 2356 481 
L 2356 0 
L 1766 0 
Q 1100 0 847 248 
Q 594 497 594 1153 
L 594 3053 
L 172 3053 
L 172 3500 
L 594 3500 
L 594 4494 
L 1172 4494 
z
" transform="scale(0.015625)"/>
       <path id="DejaVuSans-394" d="M 2188 4044 
L 906 525 
L 3472 525 
L 2188 4044 
z
M 50 0 
L 1831 4666 
L 2547 4666 
L 4325 0 
L 50 0 
z
" transform="scale(0.015625)"/>
       <path id="DejaVuSans-54" d="M -19 4666 
L 3928 4666 
L 3928 4134 
L 2272 4134 
L 2272 0 
L 1638 0 
L 1638 4134 
L -19 4134 
L -19 4666 
z
" transform="scale(0.015625)"/>
       <path id="DejaVuSans-Oblique-73" d="M 3200 3397 
L 3091 2853 
Q 2863 2978 2609 3040 
Q 2356 3103 2088 3103 
Q 1634 3103 1373 2948 
Q 1113 2794 1113 2528 
Q 1113 2219 1719 2053 
Q 1766 2041 1788 2034 
L 1972 1978 
Q 2547 1819 2739 1644 
Q 2931 1469 2931 1166 
Q 2931 609 2489 259 
Q 2047 -91 1331 -91 
Q 1053 -91 747 -37 
Q 441 16 72 128 
L 184 722 
Q 500 559 806 475 
Q 1113 391 1394 391 
Q 1816 391 2080 572 
Q 2344 753 2344 1031 
Q 2344 1331 1650 1516 
L 1591 1531 
L 1394 1581 
Q 956 1697 753 1886 
Q 550 2075 550 2369 
Q 550 2928 970 3256 
Q 1391 3584 2113 3584 
Q 2397 3584 2667 3537 
Q 2938 3491 3200 3397 
z
" transform="scale(0.015625)"/>
       <path id="DejaVuSans-Oblique-61" d="M 3438 1997 
L 3047 0 
L 2472 0 
L 2578 531 
Q 2325 219 2001 64 
Q 1678 -91 1281 -91 
Q 834 -91 548 182 
Q 263 456 263 884 
Q 263 1497 752 1853 
Q 1241 2209 2100 2209 
L 2900 2209 
L 2931 2363 
Q 2938 2388 2941 2417 
Q 2944 2447 2944 2509 
Q 2944 2788 2717 2942 
Q 2491 3097 2081 3097 
Q 1800 3097 1504 3025 
Q 1209 2953 897 2809 
L 997 3341 
Q 1322 3463 1633 3523 
Q 1944 3584 2234 3584 
Q 2853 3584 3176 3315 
Q 3500 3047 3500 2534 
Q 3500 2431 3484 2292 
Q 3469 2153 3438 1997 
z
M 2816 1759 
L 2241 1759 
Q 1534 1759 1195 1570 
Q 856 1381 856 984 
Q 856 709 1029 553 
Q 1203 397 1509 397 
Q 1978 397 2328 733 
Q 2678 1069 2791 1631 
L 2816 1759 
z
" transform="scale(0.015625)"/>
       <path id="DejaVuSans-Oblique-74" d="M 2706 3500 
L 2619 3053 
L 1472 3053 
L 1100 1153 
Q 1081 1047 1072 975 
Q 1063 903 1063 863 
Q 1063 663 1183 572 
Q 1303 481 1569 481 
L 2150 481 
L 2053 0 
L 1503 0 
Q 991 0 739 200 
Q 488 400 488 806 
Q 488 878 497 964 
Q 506 1050 525 1153 
L 897 3053 
L 409 3053 
L 500 3500 
L 978 3500 
L 1172 4494 
L 1747 4494 
L 1556 3500 
L 2706 3500 
z
" transform="scale(0.015625)"/>
       <path id="DejaVuSans-3d" d="M 678 2906 
L 4684 2906 
L 4684 2381 
L 678 2381 
L 678 2906 
z
M 678 1631 
L 4684 1631 
L 4684 1100 
L 678 1100 
L 678 1631 
z
" transform="scale(0.015625)"/>
       <path id="DejaVuSans-Oblique-77" d="M 544 3500 
L 1113 3500 
L 1259 684 
L 2566 3500 
L 3231 3500 
L 3425 684 
L 4666 3500 
L 5241 3500 
L 3641 0 
L 2969 0 
L 2797 2900 
L 1459 0 
L 781 0 
L 544 3500 
z
" transform="scale(0.015625)"/>
       <path id="DejaVuSans-2212" d="M 678 2272 
L 4684 2272 
L 4684 1741 
L 678 1741 
L 678 2272 
z
" transform="scale(0.015625)"/>
       <path id="DejaVuSans-5b" d="M 550 4863 
L 1875 4863 
L 1875 4416 
L 1125 4416 
L 1125 -397 
L 1875 -397 
L 1875 -844 
L 550 -844 
L 550 4863 
z
" transform="scale(0.015625)"/>
       <path id="DejaVuSans-4b" d="M 628 4666 
L 1259 4666 
L 1259 2694 
L 3353 4666 
L 4166 4666 
L 1850 2491 
L 4331 0 
L 3500 0 
L 1259 2247 
L 1259 0 
L 628 0 
L 628 4666 
z
" transform="scale(0.015625)"/>
       <path id="DejaVuSans-5d" d="M 1947 4863 
L 1947 -844 
L 622 -844 
L 622 -397 
L 1369 -397 
L 1369 4416 
L 622 4416 
L 622 4863 
L 1947 4863 
z
" transform="scale(0.015625)"/>
      </defs>
      <use xlink:href="#DejaVuSans-57" transform="translate(0 0.015625)"/>
      <use xlink:href="#DejaVuSans-61" transform="translate(98.876953 0.015625)"/>
      <use xlink:href="#DejaVuSans-6c" transform="translate(160.15625 0.015625)"/>
      <use xlink:href="#DejaVuSans-6c" transform="translate(187.939453 0.015625)"/>
      <use xlink:href="#DejaVuSans-20" transform="translate(215.722656 0.015625)"/>
      <use xlink:href="#DejaVuSans-73" transform="translate(247.509766 0.015625)"/>
      <use xlink:href="#DejaVuSans-75" transform="translate(299.609375 0.015625)"/>
      <use xlink:href="#DejaVuSans-70" transform="translate(362.988281 0.015625)"/>
      <use xlink:href="#DejaVuSans-65" transform="translate(426.464844 0.015625)"/>
      <use xlink:href="#DejaVuSans-72" transform="translate(487.988281 0.015625)"/>
      <use xlink:href="#DejaVuSans-68" transform="translate(529.101562 0.015625)"/>
      <use xlink:href="#DejaVuSans-65" transform="translate(592.480469 0.015625)"/>
      <use xlink:href="#DejaVuSans-61" transform="translate(654.003906 0.015625)"/>
      <use xlink:href="#DejaVuSans-74" transform="translate(715.283203 0.015625)"/>
      <use xlink:href="#DejaVuSans-20" transform="translate(754.492188 0.015625)"/>
      <use xlink:href="#DejaVuSans-20" transform="translate(786.279297 0.015625)"/>
      <use xlink:href="#DejaVuSans-394" transform="translate(818.066406 0.015625)"/>
      <use xlink:href="#DejaVuSans-54" transform="translate(886.474609 0.015625)"/>
      <use xlink:href="#DejaVuSans-Oblique-73" transform="translate(948.515625 -16.390625) scale(0.7)"/>
      <use xlink:href="#DejaVuSans-Oblique-61" transform="translate(984.985352 -16.390625) scale(0.7)"/>
      <use xlink:href="#DejaVuSans-Oblique-74" transform="translate(1027.880859 -16.390625) scale(0.7)"/>
      <use xlink:href="#DejaVuSans-20" transform="translate(1058.061523 0.015625)"/>
      <use xlink:href="#DejaVuSans-3d" transform="translate(1089.848633 0.015625)"/>
      <use xlink:href="#DejaVuSans-20" transform="translate(1173.637695 0.015625)"/>
      <use xlink:href="#DejaVuSans-54" transform="translate(1205.424805 0.015625)"/>
      <use xlink:href="#DejaVuSans-Oblique-77" transform="translate(1267.46582 -16.390625) scale(0.7)"/>
      <use xlink:href="#DejaVuSans-20" transform="translate(1327.451172 0.015625)"/>
      <use xlink:href="#DejaVuSans-2212" transform="translate(1359.238281 0.015625)"/>
      <use xlink:href="#DejaVuSans-20" transform="translate(1443.027344 0.015625)"/>
      <use xlink:href="#DejaVuSans-54" transform="translate(1474.814453 0.015625)"/>
      <use xlink:href="#DejaVuSans-Oblique-73" transform="translate(1536.855469 -16.390625) scale(0.7)"/>
      <use xlink:href="#DejaVuSans-Oblique-61" transform="translate(1573.325195 -16.390625) scale(0.7)"/>
      <use xlink:href="#DejaVuSans-Oblique-74" transform="translate(1616.220703 -16.390625) scale(0.7)"/>
      <use xlink:href="#DejaVuSans-20" transform="translate(1646.401367 0.015625)"/>
      <use xlink:href="#DejaVuSans-20" transform="translate(1678.188477 0.015625)"/>
      <use xlink:href="#DejaVuSans-5b" transform="translate(1709.975586 0.015625)"/>
      <use xlink:href="#DejaVuSans-4b" transform="translate(1748.989258 0.015625)"/>
      <use xlink:href="#DejaVuSans-5d" transform="translate(1814.56543 0.015625)"/>
     </g>
    </g>
   </g>
   <g id="matplotlib.axis_2">
    <g id="ytick_1">
     <g id="line2d_57">
      <path d="M 44.685938 304.164855 
L 560.705589 304.164855 
" clip-path="url(#p52e6703ed9)" style="fill: none; stroke: #b0b0b0; stroke-opacity: 0.3; stroke-width: 0.8; stroke-linecap: square"/>
     </g>
     <g id="line2d_58">
      <defs>
       <path id="m549c8a1ca0" d="M 0 0 
L -3.5 0 
" style="stroke: #000000; stroke-width: 0.8"/>
      </defs>
      <g>
       <use xlink:href="#m549c8a1ca0" x="44.685938" y="304.164855" style="stroke: #000000; stroke-width: 0.8"/>
      </g>
     </g>
     <g id="text_6">
      <!-- $\mathdefault{10^{3}}$ -->
      <g transform="translate(21.845938 307.584151) scale(0.09 -0.09)">
       <use xlink:href="#DejaVuSans-31" transform="translate(0 0.765625)"/>
       <use xlink:href="#DejaVuSans-30" transform="translate(63.623047 0.765625)"/>
       <use xlink:href="#DejaVuSans-33" transform="translate(128.203125 39.046875) scale(0.7)"/>
      </g>
     </g>
    </g>
    <g id="ytick_2">
     <g id="line2d_59">
      <path d="M 44.685938 227.968852 
L 560.705589 227.968852 
" clip-path="url(#p52e6703ed9)" style="fill: none; stroke: #b0b0b0; stroke-opacity: 0.3; stroke-width: 0.8; stroke-linecap: square"/>
     </g>
     <g id="line2d_60">
      <g>
       <use xlink:href="#m549c8a1ca0" x="44.685938" y="227.968852" style="stroke: #000000; stroke-width: 0.8"/>
      </g>
     </g>
     <g id="text_7">
      <!-- $\mathdefault{10^{4}}$ -->
      <g transform="translate(21.845938 231.388148) scale(0.09 -0.09)">
       <defs>
        <path id="DejaVuSans-34" d="M 2419 4116 
L 825 1625 
L 2419 1625 
L 2419 4116 
z
M 2253 4666 
L 3047 4666 
L 3047 1625 
L 3713 1625 
L 3713 1100 
L 3047 1100 
L 3047 0 
L 2419 0 
L 2419 1100 
L 313 1100 
L 313 1709 
L 2253 4666 
z
" transform="scale(0.015625)"/>
       </defs>
       <use xlink:href="#DejaVuSans-31" transform="translate(0 0.684375)"/>
       <use xlink:href="#DejaVuSans-30" transform="translate(63.623047 0.684375)"/>
       <use xlink:href="#DejaVuSans-34" transform="translate(128.203125 38.965625) scale(0.7)"/>
      </g>
     </g>
    </g>
    <g id="ytick_3">
     <g id="line2d_61">
      <path d="M 44.685938 151.772849 
L 560.705589 151.772849 
" clip-path="url(#p52e6703ed9)" style="fill: none; stroke: #b0b0b0; stroke-opacity: 0.3; stroke-width: 0.8; stroke-linecap: square"/>
     </g>
     <g id="line2d_62">
      <g>
       <use xlink:href="#m549c8a1ca0" x="44.685938" y="151.772849" style="stroke: #000000; stroke-width: 0.8"/>
      </g>
     </g>
     <g id="text_8">
      <!-- $\mathdefault{10^{5}}$ -->
      <g transform="translate(21.845938 155.192145) scale(0.09 -0.09)">
       <defs>
        <path id="DejaVuSans-35" d="M 691 4666 
L 3169 4666 
L 3169 4134 
L 1269 4134 
L 1269 2991 
Q 1406 3038 1543 3061 
Q 1681 3084 1819 3084 
Q 2600 3084 3056 2656 
Q 3513 2228 3513 1497 
Q 3513 744 3044 326 
Q 2575 -91 1722 -91 
Q 1428 -91 1123 -41 
Q 819 9 494 109 
L 494 744 
Q 775 591 1075 516 
Q 1375 441 1709 441 
Q 2250 441 2565 725 
Q 2881 1009 2881 1497 
Q 2881 1984 2565 2268 
Q 2250 2553 1709 2553 
Q 1456 2553 1204 2497 
Q 953 2441 691 2322 
L 691 4666 
z
" transform="scale(0.015625)"/>
       </defs>
       <use xlink:href="#DejaVuSans-31" transform="translate(0 0.684375)"/>
       <use xlink:href="#DejaVuSans-30" transform="translate(63.623047 0.684375)"/>
       <use xlink:href="#DejaVuSans-35" transform="translate(128.203125 38.965625) scale(0.7)"/>
      </g>
     </g>
    </g>
    <g id="ytick_4">
     <g id="line2d_63">
      <path d="M 44.685938 75.576846 
L 560.705589 75.576846 
" clip-path="url(#p52e6703ed9)" style="fill: none; stroke: #b0b0b0; stroke-opacity: 0.3; stroke-width: 0.8; stroke-linecap: square"/>
     </g>
     <g id="line2d_64">
      <g>
       <use xlink:href="#m549c8a1ca0" x="44.685938" y="75.576846" style="stroke: #000000; stroke-width: 0.8"/>
      </g>
     </g>
     <g id="text_9">
      <!-- $\mathdefault{10^{6}}$ -->
      <g transform="translate(21.845938 78.996142) scale(0.09 -0.09)">
       <defs>
        <path id="DejaVuSans-36" d="M 2113 2584 
Q 1688 2584 1439 2293 
Q 1191 2003 1191 1497 
Q 1191 994 1439 701 
Q 1688 409 2113 409 
Q 2538 409 2786 701 
Q 3034 994 3034 1497 
Q 3034 2003 2786 2293 
Q 2538 2584 2113 2584 
z
M 3366 4563 
L 3366 3988 
Q 3128 4100 2886 4159 
Q 2644 4219 2406 4219 
Q 1781 4219 1451 3797 
Q 1122 3375 1075 2522 
Q 1259 2794 1537 2939 
Q 1816 3084 2150 3084 
Q 2853 3084 3261 2657 
Q 3669 2231 3669 1497 
Q 3669 778 3244 343 
Q 2819 -91 2113 -91 
Q 1303 -91 875 529 
Q 447 1150 447 2328 
Q 447 3434 972 4092 
Q 1497 4750 2381 4750 
Q 2619 4750 2861 4703 
Q 3103 4656 3366 4563 
z
" transform="scale(0.015625)"/>
       </defs>
       <use xlink:href="#DejaVuSans-31" transform="translate(0 0.765625)"/>
       <use xlink:href="#DejaVuSans-30" transform="translate(63.623047 0.765625)"/>
       <use xlink:href="#DejaVuSans-36" transform="translate(128.203125 39.046875) scale(0.7)"/>
      </g>
     </g>
    </g>
    <g id="ytick_5">
     <g id="line2d_65">
      <path d="M 44.685938 344.006125 
L 560.705589 344.006125 
" clip-path="url(#p52e6703ed9)" style="fill: none; stroke: #b0b0b0; stroke-opacity: 0.3; stroke-width: 0.8; stroke-linecap: square"/>
     </g>
     <g id="line2d_66">
      <defs>
       <path id="m432b0e3864" d="M 0 0 
L -2 0 
" style="stroke: #000000; stroke-width: 0.6"/>
      </defs>
      <g>
       <use xlink:href="#m432b0e3864" x="44.685938" y="344.006125" style="stroke: #000000; stroke-width: 0.6"/>
      </g>
     </g>
    </g>
    <g id="ytick_6">
     <g id="line2d_67">
      <path d="M 44.685938 334.486293 
L 560.705589 334.486293 
" clip-path="url(#p52e6703ed9)" style="fill: none; stroke: #b0b0b0; stroke-opacity: 0.3; stroke-width: 0.8; stroke-linecap: square"/>
     </g>
     <g id="line2d_68">
      <g>
       <use xlink:href="#m432b0e3864" x="44.685938" y="334.486293" style="stroke: #000000; stroke-width: 0.6"/>
      </g>
     </g>
    </g>
    <g id="ytick_7">
     <g id="line2d_69">
      <path d="M 44.685938 327.102137 
L 560.705589 327.102137 
" clip-path="url(#p52e6703ed9)" style="fill: none; stroke: #b0b0b0; stroke-opacity: 0.3; stroke-width: 0.8; stroke-linecap: square"/>
     </g>
     <g id="line2d_70">
      <g>
       <use xlink:href="#m432b0e3864" x="44.685938" y="327.102137" style="stroke: #000000; stroke-width: 0.6"/>
      </g>
     </g>
    </g>
    <g id="ytick_8">
     <g id="line2d_71">
      <path d="M 44.685938 321.068843 
L 560.705589 321.068843 
" clip-path="url(#p52e6703ed9)" style="fill: none; stroke: #b0b0b0; stroke-opacity: 0.3; stroke-width: 0.8; stroke-linecap: square"/>
     </g>
     <g id="line2d_72">
      <g>
       <use xlink:href="#m432b0e3864" x="44.685938" y="321.068843" style="stroke: #000000; stroke-width: 0.6"/>
      </g>
     </g>
    </g>
    <g id="ytick_9">
     <g id="line2d_73">
      <path d="M 44.685938 315.967765 
L 560.705589 315.967765 
" clip-path="url(#p52e6703ed9)" style="fill: none; stroke: #b0b0b0; stroke-opacity: 0.3; stroke-width: 0.8; stroke-linecap: square"/>
     </g>
     <g id="line2d_74">
      <g>
       <use xlink:href="#m432b0e3864" x="44.685938" y="315.967765" style="stroke: #000000; stroke-width: 0.6"/>
      </g>
     </g>
    </g>
    <g id="ytick_10">
     <g id="line2d_75">
      <path d="M 44.685938 311.54901 
L 560.705589 311.54901 
" clip-path="url(#p52e6703ed9)" style="fill: none; stroke: #b0b0b0; stroke-opacity: 0.3; stroke-width: 0.8; stroke-linecap: square"/>
     </g>
     <g id="line2d_76">
      <g>
       <use xlink:href="#m432b0e3864" x="44.685938" y="311.54901" style="stroke: #000000; stroke-width: 0.6"/>
      </g>
     </g>
    </g>
    <g id="ytick_11">
     <g id="line2d_77">
      <path d="M 44.685938 307.651392 
L 560.705589 307.651392 
" clip-path="url(#p52e6703ed9)" style="fill: none; stroke: #b0b0b0; stroke-opacity: 0.3; stroke-width: 0.8; stroke-linecap: square"/>
     </g>
     <g id="line2d_78">
      <g>
       <use xlink:href="#m432b0e3864" x="44.685938" y="307.651392" style="stroke: #000000; stroke-width: 0.6"/>
      </g>
     </g>
    </g>
    <g id="ytick_12">
     <g id="line2d_79">
      <path d="M 44.685938 281.227572 
L 560.705589 281.227572 
" clip-path="url(#p52e6703ed9)" style="fill: none; stroke: #b0b0b0; stroke-opacity: 0.3; stroke-width: 0.8; stroke-linecap: square"/>
     </g>
     <g id="line2d_80">
      <g>
       <use xlink:href="#m432b0e3864" x="44.685938" y="281.227572" style="stroke: #000000; stroke-width: 0.6"/>
      </g>
     </g>
    </g>
    <g id="ytick_13">
     <g id="line2d_81">
      <path d="M 44.685938 267.810122 
L 560.705589 267.810122 
" clip-path="url(#p52e6703ed9)" style="fill: none; stroke: #b0b0b0; stroke-opacity: 0.3; stroke-width: 0.8; stroke-linecap: square"/>
     </g>
     <g id="line2d_82">
      <g>
       <use xlink:href="#m432b0e3864" x="44.685938" y="267.810122" style="stroke: #000000; stroke-width: 0.6"/>
      </g>
     </g>
    </g>
    <g id="ytick_14">
     <g id="line2d_83">
      <path d="M 44.685938 258.29029 
L 560.705589 258.29029 
" clip-path="url(#p52e6703ed9)" style="fill: none; stroke: #b0b0b0; stroke-opacity: 0.3; stroke-width: 0.8; stroke-linecap: square"/>
     </g>
     <g id="line2d_84">
      <g>
       <use xlink:href="#m432b0e3864" x="44.685938" y="258.29029" style="stroke: #000000; stroke-width: 0.6"/>
      </g>
     </g>
    </g>
    <g id="ytick_15">
     <g id="line2d_85">
      <path d="M 44.685938 250.906134 
L 560.705589 250.906134 
" clip-path="url(#p52e6703ed9)" style="fill: none; stroke: #b0b0b0; stroke-opacity: 0.3; stroke-width: 0.8; stroke-linecap: square"/>
     </g>
     <g id="line2d_86">
      <g>
       <use xlink:href="#m432b0e3864" x="44.685938" y="250.906134" style="stroke: #000000; stroke-width: 0.6"/>
      </g>
     </g>
    </g>
    <g id="ytick_16">
     <g id="line2d_87">
      <path d="M 44.685938 244.87284 
L 560.705589 244.87284 
" clip-path="url(#p52e6703ed9)" style="fill: none; stroke: #b0b0b0; stroke-opacity: 0.3; stroke-width: 0.8; stroke-linecap: square"/>
     </g>
     <g id="line2d_88">
      <g>
       <use xlink:href="#m432b0e3864" x="44.685938" y="244.87284" style="stroke: #000000; stroke-width: 0.6"/>
      </g>
     </g>
    </g>
    <g id="ytick_17">
     <g id="line2d_89">
      <path d="M 44.685938 239.771762 
L 560.705589 239.771762 
" clip-path="url(#p52e6703ed9)" style="fill: none; stroke: #b0b0b0; stroke-opacity: 0.3; stroke-width: 0.8; stroke-linecap: square"/>
     </g>
     <g id="line2d_90">
      <g>
       <use xlink:href="#m432b0e3864" x="44.685938" y="239.771762" style="stroke: #000000; stroke-width: 0.6"/>
      </g>
     </g>
    </g>
    <g id="ytick_18">
     <g id="line2d_91">
      <path d="M 44.685938 235.353007 
L 560.705589 235.353007 
" clip-path="url(#p52e6703ed9)" style="fill: none; stroke: #b0b0b0; stroke-opacity: 0.3; stroke-width: 0.8; stroke-linecap: square"/>
     </g>
     <g id="line2d_92">
      <g>
       <use xlink:href="#m432b0e3864" x="44.685938" y="235.353007" style="stroke: #000000; stroke-width: 0.6"/>
      </g>
     </g>
    </g>
    <g id="ytick_19">
     <g id="line2d_93">
      <path d="M 44.685938 231.455389 
L 560.705589 231.455389 
" clip-path="url(#p52e6703ed9)" style="fill: none; stroke: #b0b0b0; stroke-opacity: 0.3; stroke-width: 0.8; stroke-linecap: square"/>
     </g>
     <g id="line2d_94">
      <g>
       <use xlink:href="#m432b0e3864" x="44.685938" y="231.455389" style="stroke: #000000; stroke-width: 0.6"/>
      </g>
     </g>
    </g>
    <g id="ytick_20">
     <g id="line2d_95">
      <path d="M 44.685938 205.031569 
L 560.705589 205.031569 
" clip-path="url(#p52e6703ed9)" style="fill: none; stroke: #b0b0b0; stroke-opacity: 0.3; stroke-width: 0.8; stroke-linecap: square"/>
     </g>
     <g id="line2d_96">
      <g>
       <use xlink:href="#m432b0e3864" x="44.685938" y="205.031569" style="stroke: #000000; stroke-width: 0.6"/>
      </g>
     </g>
    </g>
    <g id="ytick_21">
     <g id="line2d_97">
      <path d="M 44.685938 191.614119 
L 560.705589 191.614119 
" clip-path="url(#p52e6703ed9)" style="fill: none; stroke: #b0b0b0; stroke-opacity: 0.3; stroke-width: 0.8; stroke-linecap: square"/>
     </g>
     <g id="line2d_98">
      <g>
       <use xlink:href="#m432b0e3864" x="44.685938" y="191.614119" style="stroke: #000000; stroke-width: 0.6"/>
      </g>
     </g>
    </g>
    <g id="ytick_22">
     <g id="line2d_99">
      <path d="M 44.685938 182.094287 
L 560.705589 182.094287 
" clip-path="url(#p52e6703ed9)" style="fill: none; stroke: #b0b0b0; stroke-opacity: 0.3; stroke-width: 0.8; stroke-linecap: square"/>
     </g>
     <g id="line2d_100">
      <g>
       <use xlink:href="#m432b0e3864" x="44.685938" y="182.094287" style="stroke: #000000; stroke-width: 0.6"/>
      </g>
     </g>
    </g>
    <g id="ytick_23">
     <g id="line2d_101">
      <path d="M 44.685938 174.710131 
L 560.705589 174.710131 
" clip-path="url(#p52e6703ed9)" style="fill: none; stroke: #b0b0b0; stroke-opacity: 0.3; stroke-width: 0.8; stroke-linecap: square"/>
     </g>
     <g id="line2d_102">
      <g>
       <use xlink:href="#m432b0e3864" x="44.685938" y="174.710131" style="stroke: #000000; stroke-width: 0.6"/>
      </g>
     </g>
    </g>
    <g id="ytick_24">
     <g id="line2d_103">
      <path d="M 44.685938 168.676837 
L 560.705589 168.676837 
" clip-path="url(#p52e6703ed9)" style="fill: none; stroke: #b0b0b0; stroke-opacity: 0.3; stroke-width: 0.8; stroke-linecap: square"/>
     </g>
     <g id="line2d_104">
      <g>
       <use xlink:href="#m432b0e3864" x="44.685938" y="168.676837" style="stroke: #000000; stroke-width: 0.6"/>
      </g>
     </g>
    </g>
    <g id="ytick_25">
     <g id="line2d_105">
      <path d="M 44.685938 163.575759 
L 560.705589 163.575759 
" clip-path="url(#p52e6703ed9)" style="fill: none; stroke: #b0b0b0; stroke-opacity: 0.3; stroke-width: 0.8; stroke-linecap: square"/>
     </g>
     <g id="line2d_106">
      <g>
       <use xlink:href="#m432b0e3864" x="44.685938" y="163.575759" style="stroke: #000000; stroke-width: 0.6"/>
      </g>
     </g>
    </g>
    <g id="ytick_26">
     <g id="line2d_107">
      <path d="M 44.685938 159.157004 
L 560.705589 159.157004 
" clip-path="url(#p52e6703ed9)" style="fill: none; stroke: #b0b0b0; stroke-opacity: 0.3; stroke-width: 0.8; stroke-linecap: square"/>
     </g>
     <g id="line2d_108">
      <g>
       <use xlink:href="#m432b0e3864" x="44.685938" y="159.157004" style="stroke: #000000; stroke-width: 0.6"/>
      </g>
     </g>
    </g>
    <g id="ytick_27">
     <g id="line2d_109">
      <path d="M 44.685938 155.259386 
L 560.705589 155.259386 
" clip-path="url(#p52e6703ed9)" style="fill: none; stroke: #b0b0b0; stroke-opacity: 0.3; stroke-width: 0.8; stroke-linecap: square"/>
     </g>
     <g id="line2d_110">
      <g>
       <use xlink:href="#m432b0e3864" x="44.685938" y="155.259386" style="stroke: #000000; stroke-width: 0.6"/>
      </g>
     </g>
    </g>
    <g id="ytick_28">
     <g id="line2d_111">
      <path d="M 44.685938 128.835566 
L 560.705589 128.835566 
" clip-path="url(#p52e6703ed9)" style="fill: none; stroke: #b0b0b0; stroke-opacity: 0.3; stroke-width: 0.8; stroke-linecap: square"/>
     </g>
     <g id="line2d_112">
      <g>
       <use xlink:href="#m432b0e3864" x="44.685938" y="128.835566" style="stroke: #000000; stroke-width: 0.6"/>
      </g>
     </g>
    </g>
    <g id="ytick_29">
     <g id="line2d_113">
      <path d="M 44.685938 115.418116 
L 560.705589 115.418116 
" clip-path="url(#p52e6703ed9)" style="fill: none; stroke: #b0b0b0; stroke-opacity: 0.3; stroke-width: 0.8; stroke-linecap: square"/>
     </g>
     <g id="line2d_114">
      <g>
       <use xlink:href="#m432b0e3864" x="44.685938" y="115.418116" style="stroke: #000000; stroke-width: 0.6"/>
      </g>
     </g>
    </g>
    <g id="ytick_30">
     <g id="line2d_115">
      <path d="M 44.685938 105.898284 
L 560.705589 105.898284 
" clip-path="url(#p52e6703ed9)" style="fill: none; stroke: #b0b0b0; stroke-opacity: 0.3; stroke-width: 0.8; stroke-linecap: square"/>
     </g>
     <g id="line2d_116">
      <g>
       <use xlink:href="#m432b0e3864" x="44.685938" y="105.898284" style="stroke: #000000; stroke-width: 0.6"/>
      </g>
     </g>
    </g>
    <g id="ytick_31">
     <g id="line2d_117">
      <path d="M 44.685938 98.514128 
L 560.705589 98.514128 
" clip-path="url(#p52e6703ed9)" style="fill: none; stroke: #b0b0b0; stroke-opacity: 0.3; stroke-width: 0.8; stroke-linecap: square"/>
     </g>
     <g id="line2d_118">
      <g>
       <use xlink:href="#m432b0e3864" x="44.685938" y="98.514128" style="stroke: #000000; stroke-width: 0.6"/>
      </g>
     </g>
    </g>
    <g id="ytick_32">
     <g id="line2d_119">
      <path d="M 44.685938 92.480834 
L 560.705589 92.480834 
" clip-path="url(#p52e6703ed9)" style="fill: none; stroke: #b0b0b0; stroke-opacity: 0.3; stroke-width: 0.8; stroke-linecap: square"/>
     </g>
     <g id="line2d_120">
      <g>
       <use xlink:href="#m432b0e3864" x="44.685938" y="92.480834" style="stroke: #000000; stroke-width: 0.6"/>
      </g>
     </g>
    </g>
    <g id="ytick_33">
     <g id="line2d_121">
      <path d="M 44.685938 87.379756 
L 560.705589 87.379756 
" clip-path="url(#p52e6703ed9)" style="fill: none; stroke: #b0b0b0; stroke-opacity: 0.3; stroke-width: 0.8; stroke-linecap: square"/>
     </g>
     <g id="line2d_122">
      <g>
       <use xlink:href="#m432b0e3864" x="44.685938" y="87.379756" style="stroke: #000000; stroke-width: 0.6"/>
      </g>
     </g>
    </g>
    <g id="ytick_34">
     <g id="line2d_123">
      <path d="M 44.685938 82.961001 
L 560.705589 82.961001 
" clip-path="url(#p52e6703ed9)" style="fill: none; stroke: #b0b0b0; stroke-opacity: 0.3; stroke-width: 0.8; stroke-linecap: square"/>
     </g>
     <g id="line2d_124">
      <g>
       <use xlink:href="#m432b0e3864" x="44.685938" y="82.961001" style="stroke: #000000; stroke-width: 0.6"/>
      </g>
     </g>
    </g>
    <g id="ytick_35">
     <g id="line2d_125">
      <path d="M 44.685938 79.063383 
L 560.705589 79.063383 
" clip-path="url(#p52e6703ed9)" style="fill: none; stroke: #b0b0b0; stroke-opacity: 0.3; stroke-width: 0.8; stroke-linecap: square"/>
     </g>
     <g id="line2d_126">
      <g>
       <use xlink:href="#m432b0e3864" x="44.685938" y="79.063383" style="stroke: #000000; stroke-width: 0.6"/>
      </g>
     </g>
    </g>
    <g id="ytick_36">
     <g id="line2d_127">
      <path d="M 44.685938 52.639563 
L 560.705589 52.639563 
" clip-path="url(#p52e6703ed9)" style="fill: none; stroke: #b0b0b0; stroke-opacity: 0.3; stroke-width: 0.8; stroke-linecap: square"/>
     </g>
     <g id="line2d_128">
      <g>
       <use xlink:href="#m432b0e3864" x="44.685938" y="52.639563" style="stroke: #000000; stroke-width: 0.6"/>
      </g>
     </g>
    </g>
    <g id="ytick_37">
     <g id="line2d_129">
      <path d="M 44.685938 39.222113 
L 560.705589 39.222113 
" clip-path="url(#p52e6703ed9)" style="fill: none; stroke: #b0b0b0; stroke-opacity: 0.3; stroke-width: 0.8; stroke-linecap: square"/>
     </g>
     <g id="line2d_130">
      <g>
       <use xlink:href="#m432b0e3864" x="44.685938" y="39.222113" style="stroke: #000000; stroke-width: 0.6"/>
      </g>
     </g>
    </g>
    <g id="ytick_38">
     <g id="line2d_131">
      <path d="M 44.685938 29.702281 
L 560.705589 29.702281 
" clip-path="url(#p52e6703ed9)" style="fill: none; stroke: #b0b0b0; stroke-opacity: 0.3; stroke-width: 0.8; stroke-linecap: square"/>
     </g>
     <g id="line2d_132">
      <g>
       <use xlink:href="#m432b0e3864" x="44.685938" y="29.702281" style="stroke: #000000; stroke-width: 0.6"/>
      </g>
     </g>
    </g>
    <g id="ytick_39">
     <g id="line2d_133">
      <path d="M 44.685938 22.318125 
L 560.705589 22.318125 
" clip-path="url(#p52e6703ed9)" style="fill: none; stroke: #b0b0b0; stroke-opacity: 0.3; stroke-width: 0.8; stroke-linecap: square"/>
     </g>
     <g id="line2d_134">
      <g>
       <use xlink:href="#m432b0e3864" x="44.685938" y="22.318125" style="stroke: #000000; stroke-width: 0.6"/>
      </g>
     </g>
    </g>
    <g id="text_10">
     <!-- Heat flux  q″  [W/m²] -->
     <g transform="translate(15.558281 239.845641) rotate(-90) scale(0.11 -0.11)">
      <defs>
       <path id="DejaVuSans-48" d="M 628 4666 
L 1259 4666 
L 1259 2753 
L 3553 2753 
L 3553 4666 
L 4184 4666 
L 4184 0 
L 3553 0 
L 3553 2222 
L 1259 2222 
L 1259 0 
L 628 0 
L 628 4666 
z
" transform="scale(0.015625)"/>
       <path id="DejaVuSans-66" d="M 2375 4863 
L 2375 4384 
L 1825 4384 
Q 1516 4384 1395 4259 
Q 1275 4134 1275 3809 
L 1275 3500 
L 2222 3500 
L 2222 3053 
L 1275 3053 
L 1275 0 
L 697 0 
L 697 3053 
L 147 3053 
L 147 3500 
L 697 3500 
L 697 3744 
Q 697 4328 969 4595 
Q 1241 4863 1831 4863 
L 2375 4863 
z
" transform="scale(0.015625)"/>
       <path id="DejaVuSans-78" d="M 3513 3500 
L 2247 1797 
L 3578 0 
L 2900 0 
L 1881 1375 
L 863 0 
L 184 0 
L 1544 1831 
L 300 3500 
L 978 3500 
L 1906 2253 
L 2834 3500 
L 3513 3500 
z
" transform="scale(0.015625)"/>
       <path id="DejaVuSans-71" d="M 947 1747 
Q 947 1113 1208 752 
Q 1469 391 1925 391 
Q 2381 391 2643 752 
Q 2906 1113 2906 1747 
Q 2906 2381 2643 2742 
Q 2381 3103 1925 3103 
Q 1469 3103 1208 2742 
Q 947 2381 947 1747 
z
M 2906 525 
Q 2725 213 2448 61 
Q 2172 -91 1784 -91 
Q 1150 -91 751 415 
Q 353 922 353 1747 
Q 353 2572 751 3078 
Q 1150 3584 1784 3584 
Q 2172 3584 2448 3432 
Q 2725 3281 2906 2969 
L 2906 3500 
L 3481 3500 
L 3481 -1331 
L 2906 -1331 
L 2906 525 
z
" transform="scale(0.015625)"/>
       <path id="DejaVuSans-2033" d="M 125 3500 
L 666 4666 
L 1300 4666 
L 397 3500 
L 125 3500 
z
M 1061 3500 
L 1602 4666 
L 2236 4666 
L 1333 3500 
L 1061 3500 
z
" transform="scale(0.015625)"/>
       <path id="DejaVuSans-2f" d="M 1625 4666 
L 2156 4666 
L 531 -594 
L 0 -594 
L 1625 4666 
z
" transform="scale(0.015625)"/>
       <path id="DejaVuSans-6d" d="M 3328 2828 
Q 3544 3216 3844 3400 
Q 4144 3584 4550 3584 
Q 5097 3584 5394 3201 
Q 5691 2819 5691 2113 
L 5691 0 
L 5113 0 
L 5113 2094 
Q 5113 2597 4934 2840 
Q 4756 3084 4391 3084 
Q 3944 3084 3684 2787 
Q 3425 2491 3425 1978 
L 3425 0 
L 2847 0 
L 2847 2094 
Q 2847 2600 2669 2842 
Q 2491 3084 2119 3084 
Q 1678 3084 1418 2786 
Q 1159 2488 1159 1978 
L 1159 0 
L 581 0 
L 581 3500 
L 1159 3500 
L 1159 2956 
Q 1356 3278 1631 3431 
Q 1906 3584 2284 3584 
Q 2666 3584 2933 3390 
Q 3200 3197 3328 2828 
z
" transform="scale(0.015625)"/>
       <path id="DejaVuSans-b2" d="M 838 2444 
L 2163 2444 
L 2163 2088 
L 294 2088 
L 294 2431 
Q 400 2528 597 2703 
Q 1672 3656 1672 3950 
Q 1672 4156 1509 4282 
Q 1347 4409 1081 4409 
Q 919 4409 728 4354 
Q 538 4300 313 4191 
L 313 4575 
Q 553 4663 761 4706 
Q 969 4750 1147 4750 
Q 1600 4750 1872 4544 
Q 2144 4338 2144 4000 
Q 2144 3566 1109 2678 
Q 934 2528 838 2444 
z
" transform="scale(0.015625)"/>
      </defs>
      <use xlink:href="#DejaVuSans-48"/>
      <use xlink:href="#DejaVuSans-65" transform="translate(75.195312 0)"/>
      <use xlink:href="#DejaVuSans-61" transform="translate(136.71875 0)"/>
      <use xlink:href="#DejaVuSans-74" transform="translate(197.998047 0)"/>
      <use xlink:href="#DejaVuSans-20" transform="translate(237.207031 0)"/>
      <use xlink:href="#DejaVuSans-66" transform="translate(268.994141 0)"/>
      <use xlink:href="#DejaVuSans-6c" transform="translate(304.199219 0)"/>
      <use xlink:href="#DejaVuSans-75" transform="translate(331.982422 0)"/>
      <use xlink:href="#DejaVuSans-78" transform="translate(395.361328 0)"/>
      <use xlink:href="#DejaVuSans-20" transform="translate(454.541016 0)"/>
      <use xlink:href="#DejaVuSans-20" transform="translate(486.328125 0)"/>
      <use xlink:href="#DejaVuSans-71" transform="translate(518.115234 0)"/>
      <use xlink:href="#DejaVuSans-2033" transform="translate(581.591797 0)"/>
      <use xlink:href="#DejaVuSans-20" transform="translate(618.945312 0)"/>
      <use xlink:href="#DejaVuSans-20" transform="translate(650.732422 0)"/>
      <use xlink:href="#DejaVuSans-5b" transform="translate(682.519531 0)"/>
      <use xlink:href="#DejaVuSans-57" transform="translate(721.533203 0)"/>
      <use xlink:href="#DejaVuSans-2f" transform="translate(820.410156 0)"/>
      <use xlink:href="#DejaVuSans-6d" transform="translate(854.101562 0)"/>
      <use xlink:href="#DejaVuSans-b2" transform="translate(951.513672 0)"/>
      <use xlink:href="#DejaVuSans-5d" transform="translate(991.601562 0)"/>
     </g>
    </g>
   </g>
   <g id="line2d_135">
    <path d="M 44.685938 327.102137 
L 54.090038 321.757374 
L 62.416885 317.024861 
L 69.888111 312.778635 
L 76.663282 308.928008 
L 82.861114 305.405508 
L 88.572321 302.159578 
L 93.867786 299.149933 
L 98.803952 296.344493 
L 103.426492 293.7173 
L 107.77289 291.247051 
L 111.874288 288.916047 
L 115.756837 286.709424 
L 119.442716 284.614577 
L 122.950891 282.620727 
L 126.297712 280.718581 
L 129.497372 278.900074 
L 132.562269 277.158159 
L 135.503297 275.486643 
L 138.330082 273.880057 
L 141.051167 272.333545 
L 143.674173 270.842776 
L 146.205925 269.40387 
L 148.65256 268.013339 
L 151.019616 266.668038 
L 153.312106 265.365115 
L 155.534586 264.101982 
L 157.691204 262.876281 
L 159.785753 261.685857 
L 161.821705 260.528736 
" clip-path="url(#p52e6703ed9)" style="fill: none; stroke: #2563eb; stroke-width: 2.2; stroke-linecap: round"/>
   </g>
   <g id="line2d_136">
    <path d="M 161.821705 260.528736 
L 168.893335 250.882853 
L 175.3383 242.091758 
L 181.25868 234.016209 
L 186.733481 226.548441 
L 191.825105 219.603336 
L 196.583698 213.112494 
L 201.050164 207.020122 
L 205.258303 201.280113 
L 209.236372 195.853926 
L 213.008229 190.709017 
L 216.594203 185.817658 
L 220.011758 181.156026 
L 223.276006 176.703508 
L 226.400114 172.442146 
L 229.395621 168.356198 
L 232.272697 164.431793 
L 235.040352 160.656642 
L 237.706604 157.019807 
L 240.278622 153.511508 
L 242.762841 150.122971 
L 245.165057 146.846287 
L 247.490512 143.674307 
L 249.74396 140.600548 
L 251.929726 137.619107 
L 254.051758 134.724601 
L 256.113668 131.912104 
L 258.118768 129.177096 
L 260.070106 126.515422 
L 261.970489 123.923251 
L 263.822512 121.397045 
L 265.628573 118.933532 
L 267.3909 116.529673 
L 269.11156 114.182648 
L 270.792479 111.889833 
L 272.435451 109.648778 
L 274.04215 107.457199 
L 275.614145 105.312957 
L 277.152903 103.214052 
L 278.659801 101.158606 
L 280.13613 99.144855 
L 281.583107 97.171142 
L 283.001876 95.235905 
L 284.393516 93.337673 
L 285.759045 91.475057 
L 287.099424 89.646745 
L 288.415564 87.851497 
L 289.708325 86.088138 
L 290.978524 84.355555 
L 292.226934 82.652691 
" clip-path="url(#p52e6703ed9)" style="fill: none; stroke: #2563eb; stroke-width: 2.2; stroke-linecap: round"/>
   </g>
   <g id="line2d_137">
    <path d="M 292.226934 82.652691 
L 297.620553 87.111835 
L 302.641892 90.416512 
L 307.33904 93.391312 
L 311.751333 96.170288 
L 315.911354 98.812176 
L 319.846396 101.349716 
L 323.579549 103.803644 
L 327.130524 106.188195 
L 330.516276 108.513703 
L 333.7515 110.787988 
L 336.849012 113.017158 
L 339.820059 115.206102 
L 342.674563 117.358821 
L 345.421325 119.478639 
L 348.068182 121.568361 
L 350.622147 123.630383 
L 353.089521 125.666772 
L 355.475982 127.679328 
L 357.786669 129.669634 
L 360.026248 131.639089 
L 362.198962 133.588938 
L 364.308691 135.520298 
L 366.358983 137.434173 
L 368.353095 139.331472 
L 370.294025 141.213021 
L 372.184535 143.079573 
L 374.027179 144.931818 
L 375.82432 146.770391 
L 377.578153 148.595874 
L 379.290716 150.408808 
L 380.963905 152.209694 
L 382.599492 153.998997 
L 384.199129 155.777149 
L 385.764362 157.544555 
L 387.296641 159.301594 
L 388.797324 161.048619 
L 390.267688 162.785965 
L 391.708934 164.513943 
L 393.122193 166.23285 
" clip-path="url(#p52e6703ed9)" style="fill: none; stroke-dasharray: 8.14,3.52; stroke-dashoffset: 0; stroke: #2563eb; stroke-width: 2.2"/>
   </g>
   <g id="line2d_138">
    <path d="M 393.122193 166.23285 
L 403.272613 161.156192 
L 412.179112 156.701672 
L 420.113555 152.733319 
L 427.267398 149.155377 
L 433.78057 145.897861 
L 439.758451 142.908068 
L 445.282384 140.145314 
L 450.416474 137.577537 
L 455.212136 135.179021 
L 459.711242 132.928826 
L 463.948343 130.809672 
L 467.952283 128.807131 
L 471.747389 126.909036 
L 475.35437 125.105031 
L 478.791 123.386226 
L 482.072646 121.744935 
L 485.212686 120.174467 
L 488.222837 118.668962 
L 491.113419 117.223259 
L 493.893569 115.832787 
L 496.571416 114.493482 
L 499.154223 113.20171 
L 501.648504 111.954213 
L 504.060128 110.748057 
L 506.394398 109.580589 
L 508.656123 108.449404 
L 510.849675 107.352315 
L 512.979045 106.287327 
L 515.047882 105.252613 
L 517.059532 104.246501 
L 519.017073 103.267451 
L 520.92334 102.314046 
L 522.780948 101.384977 
L 524.592322 100.479031 
L 526.359707 99.595087 
L 528.085189 98.7321 
L 529.770708 97.8891 
L 531.418075 97.065181 
L 533.028978 96.2595 
L 534.604996 95.471266 
L 536.147609 94.69974 
L 537.658203 93.944228 
L 539.13808 93.204078 
L 540.588465 92.478678 
L 542.01051 91.767453 
L 543.405302 91.069858 
L 544.773865 90.385381 
L 546.117168 89.713538 
L 547.436127 89.053871 
" clip-path="url(#p52e6703ed9)" style="fill: none; stroke: #2563eb; stroke-width: 2.2; stroke-linecap: round"/>
   </g>
   <g id="patch_3">
    <path d="M 44.685938 344.006125 
L 44.685938 22.318125 
" style="fill: none; stroke: #000000; stroke-width: 0.8; stroke-linejoin: miter; stroke-linecap: square"/>
   </g>
   <g id="patch_4">
    <path d="M 560.705589 344.006125 
L 560.705589 22.318125 
" style="fill: none; stroke: #000000; stroke-width: 0.8; stroke-linejoin: miter; stroke-linecap: square"/>
   </g>
   <g id="patch_5">
    <path d="M 44.685938 344.006125 
L 560.705589 344.006125 
" style="fill: none; stroke: #000000; stroke-width: 0.8; stroke-linejoin: miter; stroke-linecap: square"/>
   </g>
   <g id="patch_6">
    <path d="M 44.685938 22.318125 
L 560.705589 22.318125 
" style="fill: none; stroke: #000000; stroke-width: 0.8; stroke-linejoin: miter; stroke-linecap: square"/>
   </g>
   <g id="text_11">
    <!-- Natural -->
    <g style="fill: #555555" transform="translate(78.535598 281.16902) scale(0.09 -0.09)">
     <defs>
      <path id="DejaVuSans-4e" d="M 628 4666 
L 1478 4666 
L 3547 763 
L 3547 4666 
L 4159 4666 
L 4159 0 
L 3309 0 
L 1241 3903 
L 1241 0 
L 628 0 
L 628 4666 
z
" transform="scale(0.015625)"/>
     </defs>
     <use xlink:href="#DejaVuSans-4e"/>
     <use xlink:href="#DejaVuSans-61" transform="translate(74.804688 0)"/>
     <use xlink:href="#DejaVuSans-74" transform="translate(136.083984 0)"/>
     <use xlink:href="#DejaVuSans-75" transform="translate(175.292969 0)"/>
     <use xlink:href="#DejaVuSans-72" transform="translate(238.671875 0)"/>
     <use xlink:href="#DejaVuSans-61" transform="translate(279.785156 0)"/>
     <use xlink:href="#DejaVuSans-6c" transform="translate(341.064453 0)"/>
    </g>
    <!-- convection -->
    <g style="fill: #555555" transform="translate(70.527707 291.247051) scale(0.09 -0.09)">
     <defs>
      <path id="DejaVuSans-63" d="M 3122 3366 
L 3122 2828 
Q 2878 2963 2633 3030 
Q 2388 3097 2138 3097 
Q 1578 3097 1268 2742 
Q 959 2388 959 1747 
Q 959 1106 1268 751 
Q 1578 397 2138 397 
Q 2388 397 2633 464 
Q 2878 531 3122 666 
L 3122 134 
Q 2881 22 2623 -34 
Q 2366 -91 2075 -91 
Q 1284 -91 818 406 
Q 353 903 353 1747 
Q 353 2603 823 3093 
Q 1294 3584 2113 3584 
Q 2378 3584 2631 3529 
Q 2884 3475 3122 3366 
z
" transform="scale(0.015625)"/>
      <path id="DejaVuSans-6f" d="M 1959 3097 
Q 1497 3097 1228 2736 
Q 959 2375 959 1747 
Q 959 1119 1226 758 
Q 1494 397 1959 397 
Q 2419 397 2687 759 
Q 2956 1122 2956 1747 
Q 2956 2369 2687 2733 
Q 2419 3097 1959 3097 
z
M 1959 3584 
Q 2709 3584 3137 3096 
Q 3566 2609 3566 1747 
Q 3566 888 3137 398 
Q 2709 -91 1959 -91 
Q 1206 -91 779 398 
Q 353 888 353 1747 
Q 353 2609 779 3096 
Q 1206 3584 1959 3584 
z
" transform="scale(0.015625)"/>
      <path id="DejaVuSans-6e" d="M 3513 2113 
L 3513 0 
L 2938 0 
L 2938 2094 
Q 2938 2591 2744 2837 
Q 2550 3084 2163 3084 
Q 1697 3084 1428 2787 
Q 1159 2491 1159 1978 
L 1159 0 
L 581 0 
L 581 3500 
L 1159 3500 
L 1159 2956 
Q 1366 3272 1645 3428 
Q 1925 3584 2291 3584 
Q 2894 3584 3203 3211 
Q 3513 2838 3513 2113 
z
" transform="scale(0.015625)"/>
      <path id="DejaVuSans-76" d="M 191 3500 
L 800 3500 
L 1894 563 
L 2988 3500 
L 3597 3500 
L 2284 0 
L 1503 0 
L 191 3500 
z
" transform="scale(0.015625)"/>
      <path id="DejaVuSans-69" d="M 603 3500 
L 1178 3500 
L 1178 0 
L 603 0 
L 603 3500 
z
M 603 4863 
L 1178 4863 
L 1178 4134 
L 603 4134 
L 603 4863 
z
" transform="scale(0.015625)"/>
     </defs>
     <use xlink:href="#DejaVuSans-63"/>
     <use xlink:href="#DejaVuSans-6f" transform="translate(54.980469 0)"/>
     <use xlink:href="#DejaVuSans-6e" transform="translate(116.162109 0)"/>
     <use xlink:href="#DejaVuSans-76" transform="translate(179.541016 0)"/>
     <use xlink:href="#DejaVuSans-65" transform="translate(238.720703 0)"/>
     <use xlink:href="#DejaVuSans-63" transform="translate(300.244141 0)"/>
     <use xlink:href="#DejaVuSans-74" transform="translate(355.224609 0)"/>
     <use xlink:href="#DejaVuSans-69" transform="translate(394.433594 0)"/>
     <use xlink:href="#DejaVuSans-6f" transform="translate(422.216797 0)"/>
     <use xlink:href="#DejaVuSans-6e" transform="translate(483.398438 0)"/>
    </g>
   </g>
   <g id="text_12">
    <!-- Nucleate -->
    <g style="fill: #555555" transform="translate(205.536296 170.366378) scale(0.09 -0.09)">
     <use xlink:href="#DejaVuSans-4e"/>
     <use xlink:href="#DejaVuSans-75" transform="translate(74.804688 0)"/>
     <use xlink:href="#DejaVuSans-63" transform="translate(138.183594 0)"/>
     <use xlink:href="#DejaVuSans-6c" transform="translate(193.164062 0)"/>
     <use xlink:href="#DejaVuSans-65" transform="translate(220.947266 0)"/>
     <use xlink:href="#DejaVuSans-61" transform="translate(282.470703 0)"/>
     <use xlink:href="#DejaVuSans-74" transform="translate(343.75 0)"/>
     <use xlink:href="#DejaVuSans-65" transform="translate(382.958984 0)"/>
    </g>
    <!-- boiling -->
    <g style="fill: #555555" transform="translate(210.469421 180.444409) scale(0.09 -0.09)">
     <defs>
      <path id="DejaVuSans-62" d="M 3116 1747 
Q 3116 2381 2855 2742 
Q 2594 3103 2138 3103 
Q 1681 3103 1420 2742 
Q 1159 2381 1159 1747 
Q 1159 1113 1420 752 
Q 1681 391 2138 391 
Q 2594 391 2855 752 
Q 3116 1113 3116 1747 
z
M 1159 2969 
Q 1341 3281 1617 3432 
Q 1894 3584 2278 3584 
Q 2916 3584 3314 3078 
Q 3713 2572 3713 1747 
Q 3713 922 3314 415 
Q 2916 -91 2278 -91 
Q 1894 -91 1617 61 
Q 1341 213 1159 525 
L 1159 0 
L 581 0 
L 581 4863 
L 1159 4863 
L 1159 2969 
z
" transform="scale(0.015625)"/>
      <path id="DejaVuSans-67" d="M 2906 1791 
Q 2906 2416 2648 2759 
Q 2391 3103 1925 3103 
Q 1463 3103 1205 2759 
Q 947 2416 947 1791 
Q 947 1169 1205 825 
Q 1463 481 1925 481 
Q 2391 481 2648 825 
Q 2906 1169 2906 1791 
z
M 3481 434 
Q 3481 -459 3084 -895 
Q 2688 -1331 1869 -1331 
Q 1566 -1331 1297 -1286 
Q 1028 -1241 775 -1147 
L 775 -588 
Q 1028 -725 1275 -790 
Q 1522 -856 1778 -856 
Q 2344 -856 2625 -561 
Q 2906 -266 2906 331 
L 2906 616 
Q 2728 306 2450 153 
Q 2172 0 1784 0 
Q 1141 0 747 490 
Q 353 981 353 1791 
Q 353 2603 747 3093 
Q 1141 3584 1784 3584 
Q 2172 3584 2450 3431 
Q 2728 3278 2906 2969 
L 2906 3500 
L 3481 3500 
L 3481 434 
z
" transform="scale(0.015625)"/>
     </defs>
     <use xlink:href="#DejaVuSans-62"/>
     <use xlink:href="#DejaVuSans-6f" transform="translate(63.476562 0)"/>
     <use xlink:href="#DejaVuSans-69" transform="translate(124.658203 0)"/>
     <use xlink:href="#DejaVuSans-6c" transform="translate(152.441406 0)"/>
     <use xlink:href="#DejaVuSans-69" transform="translate(180.224609 0)"/>
     <use xlink:href="#DejaVuSans-6e" transform="translate(208.007812 0)"/>
     <use xlink:href="#DejaVuSans-67" transform="translate(271.386719 0)"/>
    </g>
   </g>
   <g id="text_13">
    <!-- Transition -->
    <g style="fill: #555555" transform="translate(320.91636 81.168892) scale(0.09 -0.09)">
     <use xlink:href="#DejaVuSans-54"/>
     <use xlink:href="#DejaVuSans-72" transform="translate(46.333984 0)"/>
     <use xlink:href="#DejaVuSans-61" transform="translate(87.447266 0)"/>
     <use xlink:href="#DejaVuSans-6e" transform="translate(148.726562 0)"/>
     <use xlink:href="#DejaVuSans-73" transform="translate(212.105469 0)"/>
     <use xlink:href="#DejaVuSans-69" transform="translate(264.205078 0)"/>
     <use xlink:href="#DejaVuSans-74" transform="translate(291.988281 0)"/>
     <use xlink:href="#DejaVuSans-69" transform="translate(331.197266 0)"/>
     <use xlink:href="#DejaVuSans-6f" transform="translate(358.980469 0)"/>
     <use xlink:href="#DejaVuSans-6e" transform="translate(420.162109 0)"/>
    </g>
    <!-- boiling -->
    <g style="fill: #555555" transform="translate(327.605188 91.246923) scale(0.09 -0.09)">
     <use xlink:href="#DejaVuSans-62"/>
     <use xlink:href="#DejaVuSans-6f" transform="translate(63.476562 0)"/>
     <use xlink:href="#DejaVuSans-69" transform="translate(124.658203 0)"/>
     <use xlink:href="#DejaVuSans-6c" transform="translate(152.441406 0)"/>
     <use xlink:href="#DejaVuSans-69" transform="translate(180.224609 0)"/>
     <use xlink:href="#DejaVuSans-6e" transform="translate(208.007812 0)"/>
     <use xlink:href="#DejaVuSans-67" transform="translate(271.386719 0)"/>
    </g>
   </g>
   <g id="text_14">
    <!-- Film -->
    <g style="fill: #555555" transform="translate(487.842951 128.908662) scale(0.09 -0.09)">
     <defs>
      <path id="DejaVuSans-46" d="M 628 4666 
L 3309 4666 
L 3309 4134 
L 1259 4134 
L 1259 2759 
L 3109 2759 
L 3109 2228 
L 1259 2228 
L 1259 0 
L 628 0 
L 628 4666 
z
" transform="scale(0.015625)"/>
     </defs>
     <use xlink:href="#DejaVuSans-46"/>
     <use xlink:href="#DejaVuSans-69" transform="translate(50.269531 0)"/>
     <use xlink:href="#DejaVuSans-6c" transform="translate(78.052734 0)"/>
     <use xlink:href="#DejaVuSans-6d" transform="translate(105.835938 0)"/>
    </g>
    <!-- boiling -->
    <g style="fill: #555555" transform="translate(481.919123 138.986694) scale(0.09 -0.09)">
     <use xlink:href="#DejaVuSans-62"/>
     <use xlink:href="#DejaVuSans-6f" transform="translate(63.476562 0)"/>
     <use xlink:href="#DejaVuSans-69" transform="translate(124.658203 0)"/>
     <use xlink:href="#DejaVuSans-6c" transform="translate(152.441406 0)"/>
     <use xlink:href="#DejaVuSans-69" transform="translate(180.224609 0)"/>
     <use xlink:href="#DejaVuSans-6e" transform="translate(208.007812 0)"/>
     <use xlink:href="#DejaVuSans-67" transform="translate(271.386719 0)"/>
    </g>
   </g>
   <g id="patch_7">
    <path d="M 129.548388 229.334125 
Q 144.965082 244.235531 159.417108 258.204511 
" style="fill: none; stroke: #16a34a; stroke-width: 1.2; stroke-linecap: round"/>
    <path d="M 158.153917 254.619215 
L 159.417108 258.204511 
L 155.790957 257.063886 
" style="fill: none; stroke: #16a34a; stroke-width: 1.2; stroke-linecap: round"/>
   </g>
   <g id="text_15">
    <!-- ONB -->
    <g style="fill: #16a34a" transform="translate(111.374076 224.174004) scale(0.085 -0.085)">
     <defs>
      <path id="DejaVuSans-Bold-4f" d="M 2719 3878 
Q 2169 3878 1866 3472 
Q 1563 3066 1563 2328 
Q 1563 1594 1866 1187 
Q 2169 781 2719 781 
Q 3272 781 3575 1187 
Q 3878 1594 3878 2328 
Q 3878 3066 3575 3472 
Q 3272 3878 2719 3878 
z
M 2719 4750 
Q 3844 4750 4481 4106 
Q 5119 3463 5119 2328 
Q 5119 1197 4481 553 
Q 3844 -91 2719 -91 
Q 1597 -91 958 553 
Q 319 1197 319 2328 
Q 319 3463 958 4106 
Q 1597 4750 2719 4750 
z
" transform="scale(0.015625)"/>
      <path id="DejaVuSans-Bold-4e" d="M 588 4666 
L 1931 4666 
L 3628 1466 
L 3628 4666 
L 4769 4666 
L 4769 0 
L 3425 0 
L 1728 3200 
L 1728 0 
L 588 0 
L 588 4666 
z
" transform="scale(0.015625)"/>
      <path id="DejaVuSans-Bold-42" d="M 2456 2859 
Q 2741 2859 2887 2984 
Q 3034 3109 3034 3353 
Q 3034 3594 2887 3720 
Q 2741 3847 2456 3847 
L 1791 3847 
L 1791 2859 
L 2456 2859 
z
M 2497 819 
Q 2859 819 3042 972 
Q 3225 1125 3225 1434 
Q 3225 1738 3044 1889 
Q 2863 2041 2497 2041 
L 1791 2041 
L 1791 819 
L 2497 819 
z
M 3616 2497 
Q 4003 2384 4215 2081 
Q 4428 1778 4428 1338 
Q 4428 663 3972 331 
Q 3516 0 2584 0 
L 588 0 
L 588 4666 
L 2394 4666 
Q 3366 4666 3802 4372 
Q 4238 4078 4238 3431 
Q 4238 3091 4078 2852 
Q 3919 2613 3616 2497 
z
" transform="scale(0.015625)"/>
     </defs>
     <use xlink:href="#DejaVuSans-Bold-4f"/>
     <use xlink:href="#DejaVuSans-Bold-4e" transform="translate(85.009766 0)"/>
     <use xlink:href="#DejaVuSans-Bold-42" transform="translate(168.701172 0)"/>
    </g>
   </g>
   <g id="patch_8">
    <path d="M 345.828861 55.122636 
Q 319.916138 68.431462 295.196851 81.127336 
" style="fill: none; stroke: #dc2626; stroke-width: 1.2; stroke-linecap: round"/>
    <path d="M 298.997944 81.086198 
L 295.196851 81.127336 
L 297.444596 78.061779 
" style="fill: none; stroke: #dc2626; stroke-width: 1.2; stroke-linecap: round"/>
   </g>
   <g id="text_16">
    <!-- CHF -->
    <g style="fill: #dc2626" transform="translate(349.61129 42.811519) scale(0.085 -0.085)">
     <defs>
      <path id="DejaVuSans-Bold-43" d="M 4288 256 
Q 3956 84 3597 -3 
Q 3238 -91 2847 -91 
Q 1681 -91 1000 561 
Q 319 1213 319 2328 
Q 319 3447 1000 4098 
Q 1681 4750 2847 4750 
Q 3238 4750 3597 4662 
Q 3956 4575 4288 4403 
L 4288 3438 
Q 3953 3666 3628 3772 
Q 3303 3878 2944 3878 
Q 2300 3878 1931 3465 
Q 1563 3053 1563 2328 
Q 1563 1606 1931 1193 
Q 2300 781 2944 781 
Q 3303 781 3628 887 
Q 3953 994 4288 1222 
L 4288 256 
z
" transform="scale(0.015625)"/>
      <path id="DejaVuSans-Bold-48" d="M 588 4666 
L 1791 4666 
L 1791 2888 
L 3566 2888 
L 3566 4666 
L 4769 4666 
L 4769 0 
L 3566 0 
L 3566 1978 
L 1791 1978 
L 1791 0 
L 588 0 
L 588 4666 
z
" transform="scale(0.015625)"/>
      <path id="DejaVuSans-Bold-46" d="M 588 4666 
L 3834 4666 
L 3834 3756 
L 1791 3756 
L 1791 2888 
L 3713 2888 
L 3713 1978 
L 1791 1978 
L 1791 0 
L 588 0 
L 588 4666 
z
" transform="scale(0.015625)"/>
     </defs>
     <use xlink:href="#DejaVuSans-Bold-43"/>
     <use xlink:href="#DejaVuSans-Bold-48" transform="translate(73.388672 0)"/>
     <use xlink:href="#DejaVuSans-Bold-46" transform="translate(157.080078 0)"/>
    </g>
    <!-- (q″$_{max}$) -->
    <g style="fill: #dc2626" transform="translate(349.61129 52.331253) scale(0.085 -0.085)">
     <defs>
      <path id="DejaVuSans-Bold-28" d="M 2413 -844 
L 1484 -844 
Q 1006 -72 778 623 
Q 550 1319 550 2003 
Q 550 2688 779 3389 
Q 1009 4091 1484 4856 
L 2413 4856 
Q 2013 4116 1813 3408 
Q 1613 2700 1613 2009 
Q 1613 1319 1811 609 
Q 2009 -100 2413 -844 
z
" transform="scale(0.015625)"/>
      <path id="DejaVuSans-Bold-71" d="M 2181 2772 
Q 1825 2772 1636 2509 
Q 1447 2247 1447 1747 
Q 1447 1247 1636 984 
Q 1825 722 2181 722 
Q 2541 722 2730 984 
Q 2919 1247 2919 1747 
Q 2919 2247 2730 2509 
Q 2541 2772 2181 2772 
z
M 2919 506 
Q 2688 197 2409 53 
Q 2131 -91 1766 -91 
Q 1119 -91 703 423 
Q 288 938 288 1747 
Q 288 2556 703 3067 
Q 1119 3578 1766 3578 
Q 2131 3578 2409 3434 
Q 2688 3291 2919 2981 
L 2919 3500 
L 4044 3500 
L 4044 -1331 
L 2919 -1331 
L 2919 506 
z
" transform="scale(0.015625)"/>
      <path id="DejaVuSans-Bold-2033" d="M 125 3500 
L 666 4666 
L 1534 4666 
L 631 3500 
L 125 3500 
z
M 1293 3500 
L 1834 4666 
L 2702 4666 
L 1799 3500 
L 1293 3500 
z
" transform="scale(0.015625)"/>
      <path id="DejaVuSans-Oblique-6d" d="M 5747 2113 
L 5338 0 
L 4763 0 
L 5166 2094 
Q 5191 2228 5203 2325 
Q 5216 2422 5216 2491 
Q 5216 2772 5059 2928 
Q 4903 3084 4622 3084 
Q 4203 3084 3875 2770 
Q 3547 2456 3450 1953 
L 3066 0 
L 2491 0 
L 2900 2094 
Q 2925 2209 2937 2307 
Q 2950 2406 2950 2484 
Q 2950 2769 2794 2926 
Q 2638 3084 2363 3084 
Q 1938 3084 1609 2770 
Q 1281 2456 1184 1953 
L 800 0 
L 225 0 
L 909 3500 
L 1484 3500 
L 1375 2956 
Q 1609 3263 1923 3423 
Q 2238 3584 2597 3584 
Q 2978 3584 3223 3384 
Q 3469 3184 3519 2828 
Q 3781 3197 4126 3390 
Q 4472 3584 4856 3584 
Q 5306 3584 5551 3325 
Q 5797 3066 5797 2591 
Q 5797 2488 5784 2364 
Q 5772 2241 5747 2113 
z
" transform="scale(0.015625)"/>
      <path id="DejaVuSans-Oblique-78" d="M 3841 3500 
L 2234 1784 
L 3219 0 
L 2559 0 
L 1819 1388 
L 531 0 
L -166 0 
L 1556 1844 
L 641 3500 
L 1300 3500 
L 1972 2234 
L 3144 3500 
L 3841 3500 
z
" transform="scale(0.015625)"/>
      <path id="DejaVuSans-Bold-29" d="M 513 -844 
Q 913 -100 1113 609 
Q 1313 1319 1313 2009 
Q 1313 2700 1113 3408 
Q 913 4116 513 4856 
L 1441 4856 
Q 1916 4091 2145 3389 
Q 2375 2688 2375 2003 
Q 2375 1319 2147 623 
Q 1919 -72 1441 -844 
L 513 -844 
z
" transform="scale(0.015625)"/>
     </defs>
     <use xlink:href="#DejaVuSans-Bold-28" transform="translate(0 0.125)"/>
     <use xlink:href="#DejaVuSans-Bold-71" transform="translate(45.703125 0.125)"/>
     <use xlink:href="#DejaVuSans-Bold-2033" transform="translate(117.285156 0.125)"/>
     <use xlink:href="#DejaVuSans-Oblique-6d" transform="translate(162.919922 -16.28125) scale(0.7)"/>
     <use xlink:href="#DejaVuSans-Oblique-61" transform="translate(231.108398 -16.28125) scale(0.7)"/>
     <use xlink:href="#DejaVuSans-Oblique-78" transform="translate(274.003906 -16.28125) scale(0.7)"/>
     <use xlink:href="#DejaVuSans-Bold-29" transform="translate(318.164062 0.125)"/>
    </g>
   </g>
   <g id="patch_9">
    <path d="M 467.122159 210.015654 
Q 430.983717 188.633991 395.99995 167.935503 
" style="fill: none; stroke: #d97706; stroke-width: 1.2; stroke-linecap: round"/>
    <path d="M 398.060484 171.129904 
L 395.99995 167.935503 
L 399.791791 168.203717 
" style="fill: none; stroke: #d97706; stroke-width: 1.2; stroke-linecap: round"/>
   </g>
   <g id="text_17">
    <!-- Leidenfrost -->
    <g style="fill: #d97706" transform="translate(459.810331 219.491668) scale(0.085 -0.085)">
     <defs>
      <path id="DejaVuSans-Bold-4c" d="M 588 4666 
L 1791 4666 
L 1791 909 
L 3903 909 
L 3903 0 
L 588 0 
L 588 4666 
z
" transform="scale(0.015625)"/>
      <path id="DejaVuSans-Bold-65" d="M 4031 1759 
L 4031 1441 
L 1416 1441 
Q 1456 1047 1700 850 
Q 1944 653 2381 653 
Q 2734 653 3104 758 
Q 3475 863 3866 1075 
L 3866 213 
Q 3469 63 3072 -14 
Q 2675 -91 2278 -91 
Q 1328 -91 801 392 
Q 275 875 275 1747 
Q 275 2603 792 3093 
Q 1309 3584 2216 3584 
Q 3041 3584 3536 3087 
Q 4031 2591 4031 1759 
z
M 2881 2131 
Q 2881 2450 2695 2645 
Q 2509 2841 2209 2841 
Q 1884 2841 1681 2658 
Q 1478 2475 1428 2131 
L 2881 2131 
z
" transform="scale(0.015625)"/>
      <path id="DejaVuSans-Bold-69" d="M 538 3500 
L 1656 3500 
L 1656 0 
L 538 0 
L 538 3500 
z
M 538 4863 
L 1656 4863 
L 1656 3950 
L 538 3950 
L 538 4863 
z
" transform="scale(0.015625)"/>
      <path id="DejaVuSans-Bold-64" d="M 2919 2988 
L 2919 4863 
L 4044 4863 
L 4044 0 
L 2919 0 
L 2919 506 
Q 2688 197 2409 53 
Q 2131 -91 1766 -91 
Q 1119 -91 703 423 
Q 288 938 288 1747 
Q 288 2556 703 3070 
Q 1119 3584 1766 3584 
Q 2128 3584 2408 3439 
Q 2688 3294 2919 2988 
z
M 2181 722 
Q 2541 722 2730 984 
Q 2919 1247 2919 1747 
Q 2919 2247 2730 2509 
Q 2541 2772 2181 2772 
Q 1825 2772 1636 2509 
Q 1447 2247 1447 1747 
Q 1447 1247 1636 984 
Q 1825 722 2181 722 
z
" transform="scale(0.015625)"/>
      <path id="DejaVuSans-Bold-6e" d="M 4056 2131 
L 4056 0 
L 2931 0 
L 2931 347 
L 2931 1631 
Q 2931 2084 2911 2256 
Q 2891 2428 2841 2509 
Q 2775 2619 2662 2680 
Q 2550 2741 2406 2741 
Q 2056 2741 1856 2470 
Q 1656 2200 1656 1722 
L 1656 0 
L 538 0 
L 538 3500 
L 1656 3500 
L 1656 2988 
Q 1909 3294 2193 3439 
Q 2478 3584 2822 3584 
Q 3428 3584 3742 3212 
Q 4056 2841 4056 2131 
z
" transform="scale(0.015625)"/>
      <path id="DejaVuSans-Bold-66" d="M 2841 4863 
L 2841 4128 
L 2222 4128 
Q 1984 4128 1890 4042 
Q 1797 3956 1797 3744 
L 1797 3500 
L 2753 3500 
L 2753 2700 
L 1797 2700 
L 1797 0 
L 678 0 
L 678 2700 
L 122 2700 
L 122 3500 
L 678 3500 
L 678 3744 
Q 678 4316 997 4589 
Q 1316 4863 1984 4863 
L 2841 4863 
z
" transform="scale(0.015625)"/>
      <path id="DejaVuSans-Bold-72" d="M 3138 2547 
Q 2991 2616 2845 2648 
Q 2700 2681 2553 2681 
Q 2122 2681 1889 2404 
Q 1656 2128 1656 1613 
L 1656 0 
L 538 0 
L 538 3500 
L 1656 3500 
L 1656 2925 
Q 1872 3269 2151 3426 
Q 2431 3584 2822 3584 
Q 2878 3584 2943 3579 
Q 3009 3575 3134 3559 
L 3138 2547 
z
" transform="scale(0.015625)"/>
      <path id="DejaVuSans-Bold-6f" d="M 2203 2784 
Q 1831 2784 1636 2517 
Q 1441 2250 1441 1747 
Q 1441 1244 1636 976 
Q 1831 709 2203 709 
Q 2569 709 2762 976 
Q 2956 1244 2956 1747 
Q 2956 2250 2762 2517 
Q 2569 2784 2203 2784 
z
M 2203 3584 
Q 3106 3584 3614 3096 
Q 4122 2609 4122 1747 
Q 4122 884 3614 396 
Q 3106 -91 2203 -91 
Q 1297 -91 786 396 
Q 275 884 275 1747 
Q 275 2609 786 3096 
Q 1297 3584 2203 3584 
z
" transform="scale(0.015625)"/>
      <path id="DejaVuSans-Bold-73" d="M 3272 3391 
L 3272 2541 
Q 2913 2691 2578 2766 
Q 2244 2841 1947 2841 
Q 1628 2841 1473 2761 
Q 1319 2681 1319 2516 
Q 1319 2381 1436 2309 
Q 1553 2238 1856 2203 
L 2053 2175 
Q 2913 2066 3209 1816 
Q 3506 1566 3506 1031 
Q 3506 472 3093 190 
Q 2681 -91 1863 -91 
Q 1516 -91 1145 -36 
Q 775 19 384 128 
L 384 978 
Q 719 816 1070 734 
Q 1422 653 1784 653 
Q 2113 653 2278 743 
Q 2444 834 2444 1013 
Q 2444 1163 2330 1236 
Q 2216 1309 1875 1350 
L 1678 1375 
Q 931 1469 631 1722 
Q 331 1975 331 2491 
Q 331 3047 712 3315 
Q 1094 3584 1881 3584 
Q 2191 3584 2531 3537 
Q 2872 3491 3272 3391 
z
" transform="scale(0.015625)"/>
      <path id="DejaVuSans-Bold-74" d="M 1759 4494 
L 1759 3500 
L 2913 3500 
L 2913 2700 
L 1759 2700 
L 1759 1216 
Q 1759 972 1856 886 
Q 1953 800 2241 800 
L 2816 800 
L 2816 0 
L 1856 0 
Q 1194 0 917 276 
Q 641 553 641 1216 
L 641 2700 
L 84 2700 
L 84 3500 
L 641 3500 
L 641 4494 
L 1759 4494 
z
" transform="scale(0.015625)"/>
     </defs>
     <use xlink:href="#DejaVuSans-Bold-4c"/>
     <use xlink:href="#DejaVuSans-Bold-65" transform="translate(63.720703 0)"/>
     <use xlink:href="#DejaVuSans-Bold-69" transform="translate(131.542969 0)"/>
     <use xlink:href="#DejaVuSans-Bold-64" transform="translate(165.820312 0)"/>
     <use xlink:href="#DejaVuSans-Bold-65" transform="translate(237.402344 0)"/>
     <use xlink:href="#DejaVuSans-Bold-6e" transform="translate(305.224609 0)"/>
     <use xlink:href="#DejaVuSans-Bold-66" transform="translate(376.416016 0)"/>
     <use xlink:href="#DejaVuSans-Bold-72" transform="translate(419.921875 0)"/>
     <use xlink:href="#DejaVuSans-Bold-6f" transform="translate(469.238281 0)"/>
     <use xlink:href="#DejaVuSans-Bold-73" transform="translate(537.939453 0)"/>
     <use xlink:href="#DejaVuSans-Bold-74" transform="translate(597.460938 0)"/>
    </g>
    <!-- (q″$_{min}$) -->
    <g style="fill: #d97706" transform="translate(459.810331 229.011403) scale(0.085 -0.085)">
     <defs>
      <path id="DejaVuSans-Oblique-69" d="M 1172 4863 
L 1747 4863 
L 1606 4134 
L 1031 4134 
L 1172 4863 
z
M 909 3500 
L 1484 3500 
L 800 0 
L 225 0 
L 909 3500 
z
" transform="scale(0.015625)"/>
      <path id="DejaVuSans-Oblique-6e" d="M 3566 2113 
L 3156 0 
L 2578 0 
L 2988 2091 
Q 3016 2238 3031 2350 
Q 3047 2463 3047 2528 
Q 3047 2791 2881 2937 
Q 2716 3084 2419 3084 
Q 1956 3084 1622 2776 
Q 1288 2469 1184 1941 
L 800 0 
L 225 0 
L 903 3500 
L 1478 3500 
L 1363 2950 
Q 1603 3253 1940 3418 
Q 2278 3584 2650 3584 
Q 3113 3584 3367 3334 
Q 3622 3084 3622 2631 
Q 3622 2519 3608 2391 
Q 3594 2263 3566 2113 
z
" transform="scale(0.015625)"/>
     </defs>
     <use xlink:href="#DejaVuSans-Bold-28" transform="translate(0 0.125)"/>
     <use xlink:href="#DejaVuSans-Bold-71" transform="translate(45.703125 0.125)"/>
     <use xlink:href="#DejaVuSans-Bold-2033" transform="translate(117.285156 0.125)"/>
     <use xlink:href="#DejaVuSans-Oblique-6d" transform="translate(162.919922 -16.28125) scale(0.7)"/>
     <use xlink:href="#DejaVuSans-Oblique-69" transform="translate(231.108398 -16.28125) scale(0.7)"/>
     <use xlink:href="#DejaVuSans-Oblique-6e" transform="translate(250.556641 -16.28125) scale(0.7)"/>
     <use xlink:href="#DejaVuSans-Bold-29" transform="translate(297.65625 0.125)"/>
    </g>
   </g>
   <g id="text_18">
    <!-- Boiling Curve (Nukiyama, schematic — water at 1 atm) -->
    <g transform="translate(117.574201 16.318125) scale(0.12 -0.12)">
     <defs>
      <path id="DejaVuSans-Bold-6c" d="M 538 4863 
L 1656 4863 
L 1656 0 
L 538 0 
L 538 4863 
z
" transform="scale(0.015625)"/>
      <path id="DejaVuSans-Bold-67" d="M 2919 594 
Q 2688 288 2409 144 
Q 2131 0 1766 0 
Q 1125 0 706 504 
Q 288 1009 288 1791 
Q 288 2575 706 3076 
Q 1125 3578 1766 3578 
Q 2131 3578 2409 3434 
Q 2688 3291 2919 2981 
L 2919 3500 
L 4044 3500 
L 4044 353 
Q 4044 -491 3511 -936 
Q 2978 -1381 1966 -1381 
Q 1638 -1381 1331 -1331 
Q 1025 -1281 716 -1178 
L 716 -306 
Q 1009 -475 1290 -558 
Q 1572 -641 1856 -641 
Q 2406 -641 2662 -400 
Q 2919 -159 2919 353 
L 2919 594 
z
M 2181 2772 
Q 1834 2772 1640 2515 
Q 1447 2259 1447 1791 
Q 1447 1309 1634 1061 
Q 1822 813 2181 813 
Q 2531 813 2725 1069 
Q 2919 1325 2919 1791 
Q 2919 2259 2725 2515 
Q 2531 2772 2181 2772 
z
" transform="scale(0.015625)"/>
      <path id="DejaVuSans-Bold-20" transform="scale(0.015625)"/>
      <path id="DejaVuSans-Bold-75" d="M 500 1363 
L 500 3500 
L 1625 3500 
L 1625 3150 
Q 1625 2866 1622 2436 
Q 1619 2006 1619 1863 
Q 1619 1441 1641 1255 
Q 1663 1069 1716 984 
Q 1784 875 1895 815 
Q 2006 756 2150 756 
Q 2500 756 2700 1025 
Q 2900 1294 2900 1772 
L 2900 3500 
L 4019 3500 
L 4019 0 
L 2900 0 
L 2900 506 
Q 2647 200 2364 54 
Q 2081 -91 1741 -91 
Q 1134 -91 817 281 
Q 500 653 500 1363 
z
" transform="scale(0.015625)"/>
      <path id="DejaVuSans-Bold-76" d="M 97 3500 
L 1216 3500 
L 2088 1081 
L 2956 3500 
L 4078 3500 
L 2700 0 
L 1472 0 
L 97 3500 
z
" transform="scale(0.015625)"/>
      <path id="DejaVuSans-Bold-6b" d="M 538 4863 
L 1656 4863 
L 1656 2216 
L 2944 3500 
L 4244 3500 
L 2534 1894 
L 4378 0 
L 3022 0 
L 1656 1459 
L 1656 0 
L 538 0 
L 538 4863 
z
" transform="scale(0.015625)"/>
      <path id="DejaVuSans-Bold-79" d="M 78 3500 
L 1197 3500 
L 2138 1125 
L 2938 3500 
L 4056 3500 
L 2584 -331 
Q 2363 -916 2067 -1148 
Q 1772 -1381 1288 -1381 
L 641 -1381 
L 641 -647 
L 991 -647 
Q 1275 -647 1404 -556 
Q 1534 -466 1606 -231 
L 1638 -134 
L 78 3500 
z
" transform="scale(0.015625)"/>
      <path id="DejaVuSans-Bold-61" d="M 2106 1575 
Q 1756 1575 1579 1456 
Q 1403 1338 1403 1106 
Q 1403 894 1545 773 
Q 1688 653 1941 653 
Q 2256 653 2472 879 
Q 2688 1106 2688 1447 
L 2688 1575 
L 2106 1575 
z
M 3816 1997 
L 3816 0 
L 2688 0 
L 2688 519 
Q 2463 200 2181 54 
Q 1900 -91 1497 -91 
Q 953 -91 614 226 
Q 275 544 275 1050 
Q 275 1666 698 1953 
Q 1122 2241 2028 2241 
L 2688 2241 
L 2688 2328 
Q 2688 2594 2478 2717 
Q 2269 2841 1825 2841 
Q 1466 2841 1156 2769 
Q 847 2697 581 2553 
L 581 3406 
Q 941 3494 1303 3539 
Q 1666 3584 2028 3584 
Q 2975 3584 3395 3211 
Q 3816 2838 3816 1997 
z
" transform="scale(0.015625)"/>
      <path id="DejaVuSans-Bold-6d" d="M 3781 2919 
Q 3994 3244 4286 3414 
Q 4578 3584 4928 3584 
Q 5531 3584 5847 3212 
Q 6163 2841 6163 2131 
L 6163 0 
L 5038 0 
L 5038 1825 
Q 5041 1866 5042 1909 
Q 5044 1953 5044 2034 
Q 5044 2406 4934 2573 
Q 4825 2741 4581 2741 
Q 4263 2741 4089 2478 
Q 3916 2216 3909 1719 
L 3909 0 
L 2784 0 
L 2784 1825 
Q 2784 2406 2684 2573 
Q 2584 2741 2328 2741 
Q 2006 2741 1831 2477 
Q 1656 2213 1656 1722 
L 1656 0 
L 531 0 
L 531 3500 
L 1656 3500 
L 1656 2988 
Q 1863 3284 2130 3434 
Q 2397 3584 2719 3584 
Q 3081 3584 3359 3409 
Q 3638 3234 3781 2919 
z
" transform="scale(0.015625)"/>
      <path id="DejaVuSans-Bold-2c" d="M 653 1209 
L 1778 1209 
L 1778 256 
L 1006 -909 
L 341 -909 
L 653 256 
L 653 1209 
z
" transform="scale(0.015625)"/>
      <path id="DejaVuSans-Bold-63" d="M 3366 3391 
L 3366 2478 
Q 3138 2634 2908 2709 
Q 2678 2784 2431 2784 
Q 1963 2784 1702 2511 
Q 1441 2238 1441 1747 
Q 1441 1256 1702 982 
Q 1963 709 2431 709 
Q 2694 709 2930 787 
Q 3166 866 3366 1019 
L 3366 103 
Q 3103 6 2833 -42 
Q 2563 -91 2291 -91 
Q 1344 -91 809 395 
Q 275 881 275 1747 
Q 275 2613 809 3098 
Q 1344 3584 2291 3584 
Q 2566 3584 2833 3536 
Q 3100 3488 3366 3391 
z
" transform="scale(0.015625)"/>
      <path id="DejaVuSans-Bold-68" d="M 4056 2131 
L 4056 0 
L 2931 0 
L 2931 347 
L 2931 1625 
Q 2931 2084 2911 2256 
Q 2891 2428 2841 2509 
Q 2775 2619 2662 2680 
Q 2550 2741 2406 2741 
Q 2056 2741 1856 2470 
Q 1656 2200 1656 1722 
L 1656 0 
L 538 0 
L 538 4863 
L 1656 4863 
L 1656 2988 
Q 1909 3294 2193 3439 
Q 2478 3584 2822 3584 
Q 3428 3584 3742 3212 
Q 4056 2841 4056 2131 
z
" transform="scale(0.015625)"/>
      <path id="DejaVuSans-Bold-2014" d="M 344 2156 
L 6056 2156 
L 6056 1350 
L 344 1350 
L 344 2156 
z
" transform="scale(0.015625)"/>
      <path id="DejaVuSans-Bold-77" d="M 225 3500 
L 1313 3500 
L 1900 1088 
L 2491 3500 
L 3425 3500 
L 4013 1113 
L 4603 3500 
L 5691 3500 
L 4769 0 
L 3547 0 
L 2956 2406 
L 2369 0 
L 1147 0 
L 225 3500 
z
" transform="scale(0.015625)"/>
      <path id="DejaVuSans-Bold-31" d="M 750 831 
L 1813 831 
L 1813 3847 
L 722 3622 
L 722 4441 
L 1806 4666 
L 2950 4666 
L 2950 831 
L 4013 831 
L 4013 0 
L 750 0 
L 750 831 
z
" transform="scale(0.015625)"/>
     </defs>
     <use xlink:href="#DejaVuSans-Bold-42"/>
     <use xlink:href="#DejaVuSans-Bold-6f" transform="translate(76.220703 0)"/>
     <use xlink:href="#DejaVuSans-Bold-69" transform="translate(144.921875 0)"/>
     <use xlink:href="#DejaVuSans-Bold-6c" transform="translate(179.199219 0)"/>
     <use xlink:href="#DejaVuSans-Bold-69" transform="translate(213.476562 0)"/>
     <use xlink:href="#DejaVuSans-Bold-6e" transform="translate(247.753906 0)"/>
     <use xlink:href="#DejaVuSans-Bold-67" transform="translate(318.945312 0)"/>
     <use xlink:href="#DejaVuSans-Bold-20" transform="translate(390.527344 0)"/>
     <use xlink:href="#DejaVuSans-Bold-43" transform="translate(425.341797 0)"/>
     <use xlink:href="#DejaVuSans-Bold-75" transform="translate(498.730469 0)"/>
     <use xlink:href="#DejaVuSans-Bold-72" transform="translate(569.921875 0)"/>
     <use xlink:href="#DejaVuSans-Bold-76" transform="translate(619.238281 0)"/>
     <use xlink:href="#DejaVuSans-Bold-65" transform="translate(684.423828 0)"/>
     <use xlink:href="#DejaVuSans-Bold-20" transform="translate(752.246094 0)"/>
     <use xlink:href="#DejaVuSans-Bold-28" transform="translate(787.060547 0)"/>
     <use xlink:href="#DejaVuSans-Bold-4e" transform="translate(832.763672 0)"/>
     <use xlink:href="#DejaVuSans-Bold-75" transform="translate(916.455078 0)"/>
     <use xlink:href="#DejaVuSans-Bold-6b" transform="translate(987.646484 0)"/>
     <use xlink:href="#DejaVuSans-Bold-69" transform="translate(1054.150391 0)"/>
     <use xlink:href="#DejaVuSans-Bold-79" transform="translate(1088.427734 0)"/>
     <use xlink:href="#DejaVuSans-Bold-61" transform="translate(1153.613281 0)"/>
     <use xlink:href="#DejaVuSans-Bold-6d" transform="translate(1221.09375 0)"/>
     <use xlink:href="#DejaVuSans-Bold-61" transform="translate(1325.292969 0)"/>
     <use xlink:href="#DejaVuSans-Bold-2c" transform="translate(1392.773438 0)"/>
     <use xlink:href="#DejaVuSans-Bold-20" transform="translate(1430.761719 0)"/>
     <use xlink:href="#DejaVuSans-Bold-73" transform="translate(1465.576172 0)"/>
     <use xlink:href="#DejaVuSans-Bold-63" transform="translate(1525.097656 0)"/>
     <use xlink:href="#DejaVuSans-Bold-68" transform="translate(1584.375 0)"/>
     <use xlink:href="#DejaVuSans-Bold-65" transform="translate(1655.566406 0)"/>
     <use xlink:href="#DejaVuSans-Bold-6d" transform="translate(1723.388672 0)"/>
     <use xlink:href="#DejaVuSans-Bold-61" transform="translate(1827.587891 0)"/>
     <use xlink:href="#DejaVuSans-Bold-74" transform="translate(1895.068359 0)"/>
     <use xlink:href="#DejaVuSans-Bold-69" transform="translate(1942.871094 0)"/>
     <use xlink:href="#DejaVuSans-Bold-63" transform="translate(1977.148438 0)"/>
     <use xlink:href="#DejaVuSans-Bold-20" transform="translate(2036.425781 0)"/>
     <use xlink:href="#DejaVuSans-Bold-2014" transform="translate(2071.240234 0)"/>
     <use xlink:href="#DejaVuSans-Bold-20" transform="translate(2171.240234 0)"/>
     <use xlink:href="#DejaVuSans-Bold-77" transform="translate(2206.054688 0)"/>
     <use xlink:href="#DejaVuSans-Bold-61" transform="translate(2298.4375 0)"/>
     <use xlink:href="#DejaVuSans-Bold-74" transform="translate(2365.917969 0)"/>
     <use xlink:href="#DejaVuSans-Bold-65" transform="translate(2413.720703 0)"/>
     <use xlink:href="#DejaVuSans-Bold-72" transform="translate(2481.542969 0)"/>
     <use xlink:href="#DejaVuSans-Bold-20" transform="translate(2530.859375 0)"/>
     <use xlink:href="#DejaVuSans-Bold-61" transform="translate(2565.673828 0)"/>
     <use xlink:href="#DejaVuSans-Bold-74" transform="translate(2633.154297 0)"/>
     <use xlink:href="#DejaVuSans-Bold-20" transform="translate(2680.957031 0)"/>
     <use xlink:href="#DejaVuSans-Bold-31" transform="translate(2715.771484 0)"/>
     <use xlink:href="#DejaVuSans-Bold-20" transform="translate(2785.351562 0)"/>
     <use xlink:href="#DejaVuSans-Bold-61" transform="translate(2820.166016 0)"/>
     <use xlink:href="#DejaVuSans-Bold-74" transform="translate(2887.646484 0)"/>
     <use xlink:href="#DejaVuSans-Bold-6d" transform="translate(2935.449219 0)"/>
     <use xlink:href="#DejaVuSans-Bold-29" transform="translate(3039.648438 0)"/>
    </g>
   </g>
   <g id="line2d_139">
    <defs>
     <path id="m74ec87001f" d="M 0 4 
C 1.060812 4 2.078319 3.578535 2.828427 2.828427 
C 3.578535 2.078319 4 1.060812 4 0 
C 4 -1.060812 3.578535 -2.078319 2.828427 -2.828427 
C 2.078319 -3.578535 1.060812 -4 0 -4 
C -1.060812 -4 -2.078319 -3.578535 -2.828427 -2.828427 
C -3.578535 -2.078319 -4 -1.060812 -4 0 
C -4 1.060812 -3.578535 2.078319 -2.828427 2.828427 
C -2.078319 3.578535 -1.060812 4 0 4 
z
" style="stroke: #16a34a"/>
    </defs>
    <g clip-path="url(#p52e6703ed9)">
     <use xlink:href="#m74ec87001f" x="161.821705" y="260.528736" style="fill: #16a34a; stroke: #16a34a"/>
    </g>
   </g>
   <g id="line2d_140">
    <defs>
     <path id="ma222bb4e4c" d="M -4 4 
L 4 4 
L 4 -4 
L -4 -4 
z
" style="stroke: #dc2626; stroke-linejoin: miter"/>
    </defs>
    <g clip-path="url(#p52e6703ed9)">
     <use xlink:href="#ma222bb4e4c" x="292.226934" y="82.652691" style="fill: #dc2626; stroke: #dc2626; stroke-linejoin: miter"/>
    </g>
   </g>
   <g id="line2d_141">
    <defs>
     <path id="m822b547aef" d="M -0 5.656854 
L 5.656854 0 
L 0 -5.656854 
L -5.656854 -0 
z
" style="stroke: #d97706; stroke-linejoin: miter"/>
    </defs>
    <g clip-path="url(#p52e6703ed9)">
     <use xlink:href="#m822b547aef" x="393.122193" y="166.23285" style="fill: #d97706; stroke: #d97706; stroke-linejoin: miter"/>
    </g>
   </g>
   <g id="legend_1">
    <g id="patch_10">
     <path d="M 50.635938 66.547344 
L 149.663594 66.547344 
Q 151.363594 66.547344 151.363594 64.847344 
L 151.363594 28.268125 
Q 151.363594 26.568125 149.663594 26.568125 
L 50.635938 26.568125 
Q 48.935938 26.568125 48.935938 28.268125 
L 48.935938 64.847344 
Q 48.935938 66.547344 50.635938 66.547344 
z
" style="fill: #ffffff; opacity: 0.9; stroke: #cccccc; stroke-linejoin: miter"/>
    </g>
    <g id="line2d_142">
     <g>
      <use xlink:href="#m74ec87001f" x="60.835938" y="33.451797" style="fill: #16a34a; stroke: #16a34a"/>
     </g>
    </g>
    <g id="text_19">
     <!-- ONB -->
     <g transform="translate(76.135938 36.426797) scale(0.085 -0.085)">
      <defs>
       <path id="DejaVuSans-4f" d="M 2522 4238 
Q 1834 4238 1429 3725 
Q 1025 3213 1025 2328 
Q 1025 1447 1429 934 
Q 1834 422 2522 422 
Q 3209 422 3611 934 
Q 4013 1447 4013 2328 
Q 4013 3213 3611 3725 
Q 3209 4238 2522 4238 
z
M 2522 4750 
Q 3503 4750 4090 4092 
Q 4678 3434 4678 2328 
Q 4678 1225 4090 567 
Q 3503 -91 2522 -91 
Q 1538 -91 948 565 
Q 359 1222 359 2328 
Q 359 3434 948 4092 
Q 1538 4750 2522 4750 
z
" transform="scale(0.015625)"/>
       <path id="DejaVuSans-42" d="M 1259 2228 
L 1259 519 
L 2272 519 
Q 2781 519 3026 730 
Q 3272 941 3272 1375 
Q 3272 1813 3026 2020 
Q 2781 2228 2272 2228 
L 1259 2228 
z
M 1259 4147 
L 1259 2741 
L 2194 2741 
Q 2656 2741 2882 2914 
Q 3109 3088 3109 3444 
Q 3109 3797 2882 3972 
Q 2656 4147 2194 4147 
L 1259 4147 
z
M 628 4666 
L 2241 4666 
Q 2963 4666 3353 4366 
Q 3744 4066 3744 3513 
Q 3744 3084 3544 2831 
Q 3344 2578 2956 2516 
Q 3422 2416 3680 2098 
Q 3938 1781 3938 1306 
Q 3938 681 3513 340 
Q 3088 0 2303 0 
L 628 0 
L 628 4666 
z
" transform="scale(0.015625)"/>
      </defs>
      <use xlink:href="#DejaVuSans-4f"/>
      <use xlink:href="#DejaVuSans-4e" transform="translate(78.710938 0)"/>
      <use xlink:href="#DejaVuSans-42" transform="translate(153.515625 0)"/>
     </g>
    </g>
    <g id="line2d_143">
     <g>
      <use xlink:href="#ma222bb4e4c" x="60.835938" y="45.928203" style="fill: #dc2626; stroke: #dc2626; stroke-linejoin: miter"/>
     </g>
    </g>
    <g id="text_20">
     <!-- CHF (burnout) -->
     <g transform="translate(76.135938 48.903203) scale(0.085 -0.085)">
      <defs>
       <path id="DejaVuSans-43" d="M 4122 4306 
L 4122 3641 
Q 3803 3938 3442 4084 
Q 3081 4231 2675 4231 
Q 1875 4231 1450 3742 
Q 1025 3253 1025 2328 
Q 1025 1406 1450 917 
Q 1875 428 2675 428 
Q 3081 428 3442 575 
Q 3803 722 4122 1019 
L 4122 359 
Q 3791 134 3420 21 
Q 3050 -91 2638 -91 
Q 1578 -91 968 557 
Q 359 1206 359 2328 
Q 359 3453 968 4101 
Q 1578 4750 2638 4750 
Q 3056 4750 3426 4639 
Q 3797 4528 4122 4306 
z
" transform="scale(0.015625)"/>
       <path id="DejaVuSans-28" d="M 1984 4856 
Q 1566 4138 1362 3434 
Q 1159 2731 1159 2009 
Q 1159 1288 1364 580 
Q 1569 -128 1984 -844 
L 1484 -844 
Q 1016 -109 783 600 
Q 550 1309 550 2009 
Q 550 2706 781 3412 
Q 1013 4119 1484 4856 
L 1984 4856 
z
" transform="scale(0.015625)"/>
       <path id="DejaVuSans-29" d="M 513 4856 
L 1013 4856 
Q 1481 4119 1714 3412 
Q 1947 2706 1947 2009 
Q 1947 1309 1714 600 
Q 1481 -109 1013 -844 
L 513 -844 
Q 928 -128 1133 580 
Q 1338 1288 1338 2009 
Q 1338 2731 1133 3434 
Q 928 4138 513 4856 
z
" transform="scale(0.015625)"/>
      </defs>
      <use xlink:href="#DejaVuSans-43"/>
      <use xlink:href="#DejaVuSans-48" transform="translate(69.824219 0)"/>
      <use xlink:href="#DejaVuSans-46" transform="translate(145.019531 0)"/>
      <use xlink:href="#DejaVuSans-20" transform="translate(202.539062 0)"/>
      <use xlink:href="#DejaVuSans-28" transform="translate(234.326172 0)"/>
      <use xlink:href="#DejaVuSans-62" transform="translate(273.339844 0)"/>
      <use xlink:href="#DejaVuSans-75" transform="translate(336.816406 0)"/>
      <use xlink:href="#DejaVuSans-72" transform="translate(400.195312 0)"/>
      <use xlink:href="#DejaVuSans-6e" transform="translate(439.558594 0)"/>
      <use xlink:href="#DejaVuSans-6f" transform="translate(502.9375 0)"/>
      <use xlink:href="#DejaVuSans-75" transform="translate(564.119141 0)"/>
      <use xlink:href="#DejaVuSans-74" transform="translate(627.498047 0)"/>
      <use xlink:href="#DejaVuSans-29" transform="translate(666.707031 0)"/>
     </g>
    </g>
    <g id="line2d_144">
     <g>
      <use xlink:href="#m822b547aef" x="60.835938" y="58.404609" style="fill: #d97706; stroke: #d97706; stroke-linejoin: miter"/>
     </g>
    </g>
    <g id="text_21">
     <!-- Leidenfrost point -->
     <g transform="translate(76.135938 61.379609) scale(0.085 -0.085)">
      <defs>
       <path id="DejaVuSans-4c" d="M 628 4666 
L 1259 4666 
L 1259 531 
L 3531 531 
L 3531 0 
L 628 0 
L 628 4666 
z
" transform="scale(0.015625)"/>
       <path id="DejaVuSans-64" d="M 2906 2969 
L 2906 4863 
L 3481 4863 
L 3481 0 
L 2906 0 
L 2906 525 
Q 2725 213 2448 61 
Q 2172 -91 1784 -91 
Q 1150 -91 751 415 
Q 353 922 353 1747 
Q 353 2572 751 3078 
Q 1150 3584 1784 3584 
Q 2172 3584 2448 3432 
Q 2725 3281 2906 2969 
z
M 947 1747 
Q 947 1113 1208 752 
Q 1469 391 1925 391 
Q 2381 391 2643 752 
Q 2906 1113 2906 1747 
Q 2906 2381 2643 2742 
Q 2381 3103 1925 3103 
Q 1469 3103 1208 2742 
Q 947 2381 947 1747 
z
" transform="scale(0.015625)"/>
      </defs>
      <use xlink:href="#DejaVuSans-4c"/>
      <use xlink:href="#DejaVuSans-65" transform="translate(53.962891 0)"/>
      <use xlink:href="#DejaVuSans-69" transform="translate(115.486328 0)"/>
      <use xlink:href="#DejaVuSans-64" transform="translate(143.269531 0)"/>
      <use xlink:href="#DejaVuSans-65" transform="translate(206.746094 0)"/>
      <use xlink:href="#DejaVuSans-6e" transform="translate(268.269531 0)"/>
      <use xlink:href="#DejaVuSans-66" transform="translate(331.648438 0)"/>
      <use xlink:href="#DejaVuSans-72" transform="translate(366.853516 0)"/>
      <use xlink:href="#DejaVuSans-6f" transform="translate(405.716797 0)"/>
      <use xlink:href="#DejaVuSans-73" transform="translate(466.898438 0)"/>
      <use xlink:href="#DejaVuSans-74" transform="translate(518.998047 0)"/>
      <use xlink:href="#DejaVuSans-20" transform="translate(558.207031 0)"/>
      <use xlink:href="#DejaVuSans-70" transform="translate(589.994141 0)"/>
      <use xlink:href="#DejaVuSans-6f" transform="translate(653.470703 0)"/>
      <use xlink:href="#DejaVuSans-69" transform="translate(714.652344 0)"/>
      <use xlink:href="#DejaVuSans-6e" transform="translate(742.435547 0)"/>
      <use xlink:href="#DejaVuSans-74" transform="translate(805.814453 0)"/>
     </g>
    </g>
   </g>
  </g>
 </g>
 <defs>
  <clipPath id="p52e6703ed9">
   <rect x="44.685938" y="22.318125" width="516.019652" height="321.688"/>
  </clipPath>
 </defs>
</svg>
